<svg xmlns="http://www.w3.org/2000/svg" xmlns:xlink="http://www.w3.org/1999/xlink" width="49.641" height="62.523" viewBox="0 0 49.641 62.523">
  <defs>
    <clipPath id="clip-path">
      <rect id="Rectangle_113429" data-name="Rectangle 113429" width="49.641" height="62.523" fill="#d0d9de"/>
    </clipPath>
  </defs>
  <g id="Group_332804" data-name="Group 332804" transform="translate(71.26 -377.7)">
    <circle id="Ellipse_16268" data-name="Ellipse 16268" cx="15.748" cy="15.748" r="15.748" transform="translate(-62.26 393.7)" fill="#1a2024"/>
    <g id="Group_332139" data-name="Group 332139" transform="translate(-71.505 377.438)">
      <g id="Group_332138" data-name="Group 332138" transform="translate(0.245 0.261)" clip-path="url(#clip-path)">
        <path id="Path_337461" data-name="Path 337461" d="M49.612,13.1A2.155,2.155,0,0,0,47.29,10.8a29,29,0,0,1-10.437-2.04A21.259,21.259,0,0,1,26.6.987,2.163,2.163,0,0,0,22.962,1,25.592,25.592,0,0,1,19.65,4.691c-4.96,4.144-10.8,5.917-17.186,6.09A2.214,2.214,0,0,0,0,13.292v21.22A21.86,21.86,0,0,0,2.087,44.1c4.457,9.244,11.881,15,21.471,18.191a3.574,3.574,0,0,0,2.291.078A35.961,35.961,0,0,0,44.778,48.9,23.557,23.557,0,0,0,49.6,35.014c.078-7.314.031-14.612.016-21.91M24.689,46.393a15.107,15.107,0,1,1,15.224-15.1,15.143,15.143,0,0,1-15.224,15.1" transform="translate(0 0)" fill="#d0d9de"/>
      </g>
    </g>
    <path id="Path_337938" data-name="Path 337938" d="M23.588,17.45q-2.814,2.8-5.628,5.616c-1.419,1.419-2.839,2.851-4.271,4.271a1.717,1.717,0,0,1-3-.494c-.494-.975-.975-1.963-1.456-2.938a1.71,1.71,0,1,1,3.036-1.494c.173.333.333.654.58,1.136A5.28,5.28,0,0,1,13.244,23q3.981-4,7.974-7.986a1.693,1.693,0,0,1,2.925.7,1.727,1.727,0,0,1-.555,1.728" transform="translate(-62.716 387.756)" fill="#d0d9de" stroke="#1a2024" stroke-width="1.5"/>
  </g>
</svg>
