<svg xmlns="http://www.w3.org/2000/svg" xmlns:xlink="http://www.w3.org/1999/xlink" width="62.251" height="62.262" viewBox="0 0 62.251 62.262">
  <defs>
    <clipPath id="clip-path">
      <rect id="Rectangle_113425" data-name="Rectangle 113425" width="62.251" height="62.262" fill="none"/>
    </clipPath>
  </defs>
  <g id="Group_332805" data-name="Group 332805" transform="translate(0 0)">
    <rect id="Rectangle_113423" data-name="Rectangle 113423" width="24.266" height="23.447" transform="translate(31.3 31.021)" fill="#1a2024"/>
    <g id="Group_332125" data-name="Group 332125" transform="translate(0 0)">
      <g id="Group_332124" data-name="Group 332124" clip-path="url(#clip-path)">
        <path id="Path_337446" data-name="Path 337446" d="M32.649,53.807a21.047,21.047,0,0,1-5.038-1.295c-6.7-2.88-10.8-7.883-11.875-15.11a19.156,19.156,0,0,1,37.848-5.931q.1.6.209,1.193v4.009c-.028.117-.065.233-.082.352A18.952,18.952,0,0,1,41.75,52.517a20.592,20.592,0,0,1-5.092,1.29Zm.691-14.662v0c-1.417,0-2.835-.011-4.252,0a1.785,1.785,0,1,0-.014,3.55c1.721.015,3.442.02,5.163,0a31.987,31.987,0,0,0,3.943-.087,6.633,6.633,0,0,0,5.669-4.354,6.821,6.821,0,0,0-1.3-7.363,6.93,6.93,0,0,0-5.352-2.319c-1.457-.023-2.915,0-4.374-.008-.133,0-.314.056-.383-.1s.1-.249.187-.345c.25-.266.524-.51.762-.785a1.747,1.747,0,0,0-.068-2.418A1.713,1.713,0,0,0,30.9,24.92Q28.771,27,26.694,29.13a1.732,1.732,0,0,0,0,2.467q2.079,2.13,4.213,4.205a1.724,1.724,0,0,0,2.416-.015,1.75,1.75,0,0,0,.022-2.463c-.216-.239-.459-.456-.681-.692-.105-.113-.306-.209-.239-.385s.283-.108.433-.11c1.519,0,3.037-.011,4.556,0a3.5,3.5,0,0,1-.009,7.005c-1.357.009-2.713,0-4.07,0" transform="translate(8.46 8.456)" fill="#d0d9de"/>
        <rect id="Rectangle_113424" data-name="Rectangle 113424" width="19.221" height="16.088" transform="translate(16.714 0.005)" fill="#1a2024"/>
        <path id="Path_337447" data-name="Path 337447" d="M51.727,2.086V21.352c0,.773-.031.788-.742.525A22.662,22.662,0,0,0,21,38.285a22.3,22.3,0,0,0,.85,12.669c.278.757.278.772-.525.772-6.412,0-12.823.015-19.251,0A1.856,1.856,0,0,1,0,49.625V2.24C0,.664.649,0,2.256,0H16.408c.8,0,.8.015.8.8q0,6.234.015,12.453a5.153,5.153,0,0,0,.062.973A1.7,1.7,0,0,0,19.7,15.5c.742-.324,1.452-.726,2.178-1.1,1.128-.572,2.287-1.128,3.4-1.73a1.137,1.137,0,0,1,1.19.015c1.7.881,3.445,1.715,5.129,2.642a1.873,1.873,0,0,0,2.92-1.792C34.484,9.3,34.5,5.068,34.5.834c0-.819.015-.834.85-.834H49.61a1.872,1.872,0,0,1,2.117,2.086" transform="translate(0 -0.001)" fill="#d0d9de"/>
      </g>
    </g>
  </g>
</svg>
