<svg width="24" height="24" viewBox="0 0 24 24" fill="none" xmlns="http://www.w3.org/2000/svg">
<rect width="24" height="24" fill="white"/>
<path d="M20.3969 18.0652C20.3969 17.5952 20.2576 17.1358 19.9965 16.745C19.7354 16.3543 19.3643 16.0497 18.9301 15.8698C18.4959 15.69 18.0181 15.6429 17.5572 15.7346C17.0962 15.8263 16.6728 16.0526 16.3405 16.3849C16.0082 16.7173 15.7819 17.1407 15.6902 17.6016C15.5985 18.0625 15.6456 18.5403 15.8254 18.9745C16.0053 19.4087 16.3098 19.7798 16.7006 20.0409C17.0914 20.302 17.5508 20.4414 18.0207 20.4414C18.6509 20.4414 19.2553 20.191 19.701 19.7454C20.1466 19.2998 20.3969 18.6954 20.3969 18.0652ZM17.0893 18.0652C17.0893 17.8772 17.145 17.6934 17.2495 17.5371C17.3539 17.3808 17.5023 17.259 17.676 17.187C17.8497 17.1151 18.0408 17.0963 18.2252 17.133C18.4096 17.1696 18.5789 17.2602 18.7118 17.3931C18.8448 17.526 18.9353 17.6954 18.972 17.8797C19.0086 18.0641 18.9898 18.2552 18.9179 18.4289C18.8459 18.6026 18.7241 18.751 18.5678 18.8555C18.4115 18.9599 18.2277 19.0157 18.0398 19.0157C17.7877 19.0157 17.5459 18.9155 17.3677 18.7373C17.1894 18.559 17.0893 18.3173 17.0893 18.0652Z" fill="black"/>
<path d="M21.2853 6.21501H7.33697L6.86172 4.27602C6.77466 3.91241 6.56763 3.58874 6.27404 3.35723C5.98045 3.12571 5.61742 2.99987 5.24353 3H2.71286C2.5238 3 2.34248 3.07511 2.20879 3.20879C2.0751 3.34248 2 3.5238 2 3.71286C2 3.90193 2.0751 4.08325 2.20879 4.21693C2.34248 4.35062 2.5238 4.42573 2.71286 4.42573H5.25541C5.31001 4.42427 5.36345 4.44166 5.40673 4.47499C5.45001 4.50831 5.48048 4.55553 5.49303 4.60869L7.413 12.6664C7.54974 13.2378 7.87499 13.7465 8.33629 14.1103C8.79759 14.4742 9.36802 14.672 9.95555 14.6719H18.0632C18.6499 14.671 19.2192 14.4727 19.6795 14.1089C20.1399 13.7451 20.4644 13.237 20.601 12.6664L21.9792 7.09896C22.0051 6.99399 22.0068 6.8845 21.9842 6.77876C21.9616 6.67302 21.9152 6.57382 21.8486 6.48865C21.782 6.40349 21.6969 6.33459 21.5997 6.28718C21.5025 6.23977 21.3958 6.21509 21.2877 6.21501H21.2853ZM19.218 12.3314C19.1543 12.589 19.0063 12.8178 18.7974 12.9815C18.5885 13.1451 18.3309 13.2341 18.0655 13.2343H9.95555C9.68852 13.2341 9.42934 13.144 9.21982 12.9785C9.0103 12.8129 8.86266 12.5816 8.80071 12.3219L7.67914 7.64074H20.3752L19.218 12.3314Z" fill="black"/>
<path d="M9.41625 20.4319C9.88622 20.4319 10.3456 20.2925 10.7364 20.0314C11.1272 19.7703 11.4317 19.3992 11.6116 18.965C11.7914 18.5308 11.8385 18.053 11.7468 17.5921C11.6551 17.1311 11.4288 16.7077 11.0965 16.3754C10.7642 16.0431 10.3408 15.8168 9.87982 15.7251C9.41888 15.6334 8.94111 15.6805 8.50691 15.8603C8.07272 16.0402 7.7016 16.3447 7.4405 16.7355C7.1794 17.1263 7.04004 17.5857 7.04004 18.0557C7.04004 18.6859 7.29039 19.2903 7.73602 19.7359C8.18164 20.1815 8.78604 20.4319 9.41625 20.4319ZM9.41625 17.1242C9.60424 17.1242 9.788 17.1799 9.94431 17.2844C10.1006 17.3888 10.2224 17.5372 10.2944 17.7109C10.3663 17.8846 10.3851 18.0757 10.3485 18.2601C10.3118 18.4445 10.2213 18.6138 10.0883 18.7468C9.95541 18.8797 9.78605 18.9702 9.60168 19.0069C9.4173 19.0436 9.22619 19.0247 9.05251 18.9528C8.87884 18.8809 8.73039 18.759 8.62595 18.6027C8.52151 18.4464 8.46576 18.2627 8.46576 18.0747C8.46576 17.8226 8.56591 17.5808 8.74416 17.4026C8.92241 17.2243 9.16416 17.1242 9.41625 17.1242Z" fill="black"/>
</svg>
