<svg width="34" height="24" viewBox="0 0 34 24" fill="none" xmlns="http://www.w3.org/2000/svg">
<path d="M23.6668 22.0787C25.1395 22.0787 26.3335 20.8848 26.3335 19.412C26.3335 17.9392 25.1395 16.7453 23.6668 16.7453C22.194 16.7453 21.0001 17.9392 21.0001 19.412C21.0001 20.8848 22.194 22.0787 23.6668 22.0787Z" stroke="#039855" stroke-width="2" stroke-linecap="round" stroke-linejoin="round"/>
<path d="M10.3336 22.0787C11.8064 22.0787 13.0003 20.8848 13.0003 19.412C13.0003 17.9392 11.8064 16.7453 10.3336 16.7453C8.86084 16.7453 7.66693 17.9392 7.66693 19.412C7.66693 20.8848 8.86084 22.0787 10.3336 22.0787Z" stroke="#039855" stroke-width="2" stroke-linecap="round" stroke-linejoin="round"/>
<path d="M6.33312 1H23.6665L20.9999 12.7334H2.3331" stroke="#039855" stroke-width="2" stroke-linecap="round" stroke-linejoin="round"/>
<path d="M1 19.413H7.72003" stroke="#039855" stroke-width="2" stroke-linecap="round" stroke-linejoin="round"/>
<path d="M13.0001 19.413H21.0001" stroke="#039855" stroke-width="2" stroke-linecap="round" stroke-linejoin="round"/>
<path d="M3.66693 6.86462H14.3336" stroke="#039855" stroke-width="2" stroke-linecap="round" stroke-linejoin="round"/>
<path d="M22.3332 6.86462H27.6666C30.6132 6.86462 32.9999 9.2513 32.9999 12.198V19.398H26.3332" stroke="#039855" stroke-width="2" stroke-linecap="round" stroke-linejoin="round"/>
</svg>
