<svg xmlns="http://www.w3.org/2000/svg" xmlns:xlink="http://www.w3.org/1999/xlink" width="94.221" height="59.862" viewBox="0 0 94.221 59.862">
  <defs>
    <clipPath id="clip-path">
      <rect id="Rectangle_113432" data-name="Rectangle 113432" width="94.221" height="59.862" fill="#d0d9de"/>
    </clipPath>
  </defs>
  <g id="Group_332806" data-name="Group 332806" transform="translate(-183 -550.308)">
    <path id="Path_337484" data-name="Path 337484" d="M0,1.274A2.607,2.607,0,0,1,2.4.008Q2.9,0,3.407,0H53.954c3.147,0,3.621.474,3.621,3.621q0,22.057,0,44.113a11.122,11.122,0,0,1-.028,1.195A2.113,2.113,0,0,1,55.389,51.1a8.989,8.989,0,0,1-1.011.028q-10.705,0-21.412,0c-2.263,0-2.782-.426-3.223-2.625a10.16,10.16,0,0,0-9.01-8.049,10.821,10.821,0,0,0-9.372,3.178,9.6,9.6,0,0,0-2.52,4.918c-.426,2.161-.955,2.574-3.164,2.578-1.042,0-2.084-.007-3.124,0A2.638,2.638,0,0,1,0,49.823Z" transform="translate(183 550.308)" fill="#d0d9de"/>
    <path id="Path_337473" data-name="Path 337473" d="M38.356,22.265V7.863H52.862l10.906,14.4v1.827l-25.412-.5Z" transform="translate(207.776 555.386)" fill="#1a2024"/>
    <g id="Group_332150" data-name="Group 332150" transform="translate(183 550.308)">
      <g id="Group_332149" data-name="Group 332149" transform="translate(0 0)" clip-path="url(#clip-path)">
        <path id="Path_337475" data-name="Path 337475" d="M37.1,26.665q0-8.5,0-17c0-.367-.01-.737.026-1.1a2.114,2.114,0,0,1,2.454-2.225c3.126-.012,6.251,0,9.375,0,1.195,0,2.39.015,3.585,0a2.637,2.637,0,0,1,2.174.988Q62.2,16.269,69.685,25.22a2.387,2.387,0,0,1,.574,1.6c-.007,6,0,12.01-.008,18.015a1.946,1.946,0,0,1-1.834,2.136,6.594,6.594,0,0,1-2.105.016A1.974,1.974,0,0,1,64.3,45.08a10.33,10.33,0,0,0-9.576-8.766c-5.341-.428-10.164,2.666-11.388,7.769-.015.059-.038.117-.051.176-.584,2.559-2.271,3.476-4.8,2.6a1.765,1.765,0,0,1-1.241-1.361,8.854,8.854,0,0,1-.145-1.641q-.015-8.594-.007-17.189m13.867-3.41c2.573,0,5.147-.007,7.719,0a1.835,1.835,0,0,0,1.541-3.131q-3.7-4.449-7.408-8.9a2.45,2.45,0,0,0-2-.943c-2.512.016-5.023,0-7.535.01-1.478.008-2.115.645-2.123,2.138q-.022,4.318,0,8.638c.007,1.549.634,2.169,2.179,2.176,2.543.012,5.084,0,7.627,0" transform="translate(23.961 4.084)" fill="#d0d9de"/>
        <path id="Path_337476" data-name="Path 337476" d="M14.888,42.672a8.06,8.06,0,1,1,8.111-8,8.008,8.008,0,0,1-8.111,8M17.1,34.626a2.192,2.192,0,1,0-4.383-.012,2.192,2.192,0,1,0,4.383.012" transform="translate(4.391 17.15)" fill="#d0d9de"/>
        <path id="Path_337477" data-name="Path 337477" d="M50.314,42.674a8.062,8.062,0,0,1,.031-16.124,8.062,8.062,0,1,1-.031,16.124m.031-5.823a2.3,2.3,0,0,0,2.257-2.2,2.378,2.378,0,0,0-2.192-2.278,2.3,2.3,0,0,0-2.285,2.26,2.271,2.271,0,0,0,2.22,2.215" transform="translate(27.325 17.149)" fill="#d0d9de"/>
        <path id="Path_337478" data-name="Path 337478" d="M23,34.627a8.1,8.1,0,1,1-8.1-8.1,8.1,8.1,0,0,1,8.1,8.1" transform="translate(4.391 17.134)" fill="#1a2024"/>
        <path id="Path_337479" data-name="Path 337479" d="M58.48,34.627a8.1,8.1,0,1,1-8.1-8.1,8.1,8.1,0,0,1,8.1,8.1" transform="translate(27.31 17.134)" fill="#1a2024"/>
      </g>
    </g>
    <g id="Group_332151" data-name="Group 332151" transform="translate(187.938 556.21)">
      <path id="Path_337480" data-name="Path 337480" d="M25.994,2.591V5.549H19.821V8.742h4.617v2.871H19.821v6.13H16.128V2.591Z" transform="translate(-16.128 -2.59)" fill="#1a2024"/>
      <path id="Path_337481" data-name="Path 337481" d="M28.758,17.743l-3.15-5.72h-.886v5.72h-3.69V2.591h6.195a6.79,6.79,0,0,1,3.054.626,4.3,4.3,0,0,1,1.888,1.715A4.763,4.763,0,0,1,32.8,7.36a4.521,4.521,0,0,1-.855,2.7,4.6,4.6,0,0,1-2.515,1.684l3.5,6ZM24.721,9.412h2.288a2.1,2.1,0,0,0,1.522-.5,1.873,1.873,0,0,0,.508-1.4,1.815,1.815,0,0,0-.508-1.361,2.1,2.1,0,0,0-1.522-.5H24.721Z" transform="translate(-9.223 -2.59)" fill="#1a2024"/>
      <path id="Path_337482" data-name="Path 337482" d="M30.564,5.548V8.612h4.945v2.849H30.564v3.326h5.59v2.955h-9.28V2.591h9.28V5.548Z" transform="translate(-0.993 -2.591)" fill="#1a2024"/>
      <path id="Path_337483" data-name="Path 337483" d="M35.413,5.548V8.612h4.945v2.849H35.413v3.326H41v2.955h-9.28V2.591H41V5.548Z" transform="translate(5.837 -2.591)" fill="#1a2024"/>
    </g>
  </g>
</svg>
