<svg width="40" height="40" viewBox="0 0 40 40" fill="none" xmlns="http://www.w3.org/2000/svg">
<path d="M34.9983 20.65C35.0164 19.5969 34.9076 18.5438 34.6777 17.521H20.3052V23.2041H28.7436C28.423 25.2195 27.2918 27.011 25.6162 28.173L25.586 28.3607L30.1288 31.8831L30.4434 31.9133C33.3288 29.2443 34.9983 25.3163 34.9983 20.65Z" fill="#4285F4"/>
<path d="M20.3061 35.6223C24.4376 35.6223 27.9097 34.2605 30.4443 31.9122L25.6171 28.1659C24.0504 29.219 22.1934 29.7516 20.3121 29.6971C16.344 29.6729 12.8355 27.1067 11.6015 23.3301L11.42 23.3482L6.69574 27.0038L6.63525 27.1733C9.22424 32.3601 14.5172 35.6283 20.3061 35.6223Z" fill="#34A853"/>
<path d="M11.5935 23.3377C11.2608 22.3632 11.0853 21.3404 11.0853 20.3055C11.0914 19.2766 11.2608 18.2537 11.5814 17.2733L11.5753 17.0735L6.79052 13.3574L6.63324 13.43C4.45559 17.7574 4.45559 22.8535 6.63324 27.1809L11.5935 23.3377Z" fill="#FBBC05"/>
<path d="M20.305 10.9201C22.5008 10.8837 24.618 11.7008 26.221 13.2018L30.54 8.98333C27.7695 6.38084 24.0978 4.95855 20.299 5.00092C14.51 5.00092 9.21711 8.2631 6.62207 13.4439L11.5702 17.2871C12.8163 13.5104 16.3308 10.9443 20.305 10.9201Z" fill="#EB4335"/>
</svg>
