<svg xmlns="http://www.w3.org/2000/svg" width="34.936" height="34.942" viewBox="0 0 34.936 34.942">
    <defs>
        <clipPath id="6cfx7x3h5a">
            <path data-name="Rectangle 113431" style="fill:#b2b9bf" d="M0 0h34.936v34.942H0z"/>
        </clipPath>
    </defs>
    <g data-name="Group 332405" transform="translate(-328 -494)">
        <path data-name="Path 337472" d="M331.165 497v6.9l9.821 2.3 2.925 6.164v11.7s9.507.522 9.507 0v-20.169h-9.507V497z" transform="translate(7.487 1.344)" style="fill:#1a2024"/>
        <circle data-name="Ellipse 16269" cx="5.585" cy="5.585" r="5.585" transform="translate(332.344 513.237)" style="fill:#1a2024"/>
        <g data-name="Group 332146">
            <g data-name="Group 332145" transform="translate(328 494)" style="clip-path:url(#6cfx7x3h5a)">
                <path data-name="Path 337469" d="M22.075 34.849c.264-.223.506-.415.734-.623a12.428 12.428 0 0 0-3.648-20.816 12.081 12.081 0 0 0-6.717-.686c-.32.058-.4-.039-.4-.352.01-2.918 0-5.837.011-8.755A3.709 3.709 0 0 1 15.64.012C20.128 0 24.616.011 29.1 0c.343 0 .445.107.442.446-.014 1.855-.011 3.71 0 5.565a4.059 4.059 0 0 0 .318 1.708 3.7 3.7 0 0 0 3.6 2.248c1.842.018 3.684 0 5.525 0 .513 0 .515 0 .515.516v20.663a3.713 3.713 0 0 1-3.763 3.783q-6.615.009-13.231 0a.622.622 0 0 1-.434-.085M22.04 9.97c1.206 0 2.412.011 3.617 0a1.225 1.225 0 0 0 1.249-1.614 1.3 1.3 0 0 0-1.329-.817h-7.079a1.861 1.861 0 0 0-.574.084 1.188 1.188 0 0 0-.508 1.927 1.37 1.37 0 0 0 1.085.428h3.539m8.718 3.794c-.817 0-1.634-.018-2.449 0A1.233 1.233 0 0 0 27.057 15a1.249 1.249 0 0 0 1.25 1.193c1.633.019 3.267.015 4.9 0a1.25 1.25 0 0 0 1.173-.812 1.222 1.222 0 0 0-1.211-1.613c-.8-.019-1.607 0-2.411 0m1.231 8.661c.389 0 .778.01 1.166 0A1.218 1.218 0 1 0 33.144 20q-1.146-.02-2.293 0a1.242 1.242 0 0 0-1.3 1.218 1.279 1.279 0 0 0 1.314 1.212c.375.011.751 0 1.127 0m.018 3.793c-.388 0-.778-.011-1.166 0a1.247 1.247 0 0 0-1.293 1.227 1.268 1.268 0 0 0 1.285 1.2c.777.017 1.555.016 2.332 0a1.216 1.216 0 1 0 .008-2.428c-.388-.013-.778 0-1.166 0" transform="translate(-4.57)" style="fill:#d0d9de"/>
                <path data-name="Path 337470" d="M19.988 34.082a9.994 9.994 0 1 1-10.028-10 9.98 9.98 0 0 1 10.028 10M7.49 37.788a1.543 1.543 0 0 0 1.037-.518q2.319-2.329 4.646-4.65a2.555 2.555 0 0 0 .282-.32 1.19 1.19 0 0 0-.69-1.875 1.24 1.24 0 0 0-1.255.429q-2.367 2.363-4.729 4.731a1.97 1.97 0 0 0-.315.392 1.129 1.129 0 0 0 .014 1.217 1.237 1.237 0 0 0 1.011.593M7.483 32.8a1.207 1.207 0 1 0 0-2.415 1.207 1.207 0 0 0 0 2.415m5.03 4.984a1.259 1.259 0 0 0 1.187-1.217 1.236 1.236 0 0 0-1.191-1.2 1.208 1.208 0 1 0 .009 2.415" transform="translate(0 -9.137)" style="fill:#d0d9de"/>
                <path data-name="Path 337471" d="M44.242 1.251c.115.1.2.177.285.258q3.066 3.064 6.129 6.132c.086.086.258.165.2.3s-.233.065-.356.065q-2.488.006-4.976 0a1.256 1.256 0 0 1-1.36-1.352V1.639a.613.613 0 0 1 .076-.388" transform="translate(-16.758 -.475)" style="fill:#1a2024"/>
            </g>
        </g>
    </g>
</svg>
