<svg width="40" height="40" viewBox="0 0 40 40" fill="none" xmlns="http://www.w3.org/2000/svg">
<path fill-rule="evenodd" clip-rule="evenodd" d="M2.04056 16.2086C2.04056 15.9585 2.20955 15.8301 2.41911 15.8301H6.08969C7.21858 15.9585 8.00272 16.5331 8.08383 18.0405V20.082C8.08383 20.3862 8.06355 20.6431 7.97568 20.9337C7.685 21.9139 6.98198 22.4006 5.93421 22.475H4.35918C4.35918 23.3064 4.35918 24.1379 4.35918 24.9693C4.35918 25.1586 4.2037 25.2533 4.00766 25.2533C3.45336 25.2533 2.90582 25.2533 2.35151 25.2533C2.14872 25.2533 2 25.1383 2 24.9153L2.04056 16.2086ZM4.37269 18.1487H5.35287C5.56918 18.1487 5.7517 18.3312 5.7517 18.5475V19.7237C5.7517 19.9468 5.56918 20.1226 5.35287 20.1226H4.37269V18.1487Z" fill="#253081"/>
<path fill-rule="evenodd" clip-rule="evenodd" d="M9.88864 15.8438H12.4574C13.958 15.9316 14.776 16.7225 14.7489 18.3584V24.4152C14.7489 24.8884 14.2758 25.2399 13.8702 25.2399H10.5038C9.48305 25.2399 8.80707 24.4422 8.63807 23.6649C8.47584 22.9145 8.59751 22.0087 8.59751 21.2448C8.59751 20.0619 9.38165 18.8924 10.6863 18.8924H12.0585C12.4574 18.8721 12.4371 18.0001 12.0585 18.0339H9.91568C9.69936 18.0339 9.54389 17.919 9.52361 17.6959C9.52361 17.1687 9.52361 16.6414 9.52361 16.1074C9.53037 15.9046 9.69936 15.8438 9.88864 15.8438ZM11.3082 21.0826H12.0923C12.2749 21.0826 12.4303 21.2313 12.4303 21.4206V22.7861C12.4303 22.9686 12.2816 23.1241 12.0923 23.1241H11.3082C11.1257 23.1241 10.9702 22.9754 10.9702 22.7861V21.4206C10.9702 21.2313 11.1189 21.0826 11.3082 21.0826Z" fill="#253081"/>
<path fill-rule="evenodd" clip-rule="evenodd" d="M15.54 16.2694V20.0954C15.6347 21.2987 16.7095 22.191 17.8789 22.191H18.9605C19.4067 22.191 19.3796 22.9413 18.9605 22.9413H16.6148C16.358 22.9413 16.2701 23.0765 16.2701 23.2996V24.9828C16.2701 25.1518 16.4053 25.2802 16.5878 25.2802H18.7577C20.5693 25.2802 21.6036 24.4082 21.6036 22.4614V16.1207C21.6036 15.9111 21.4752 15.83 21.3467 15.83H19.5283C19.3593 15.83 19.2647 16.0125 19.2647 16.1477V19.629C19.2647 19.7777 19.1836 19.8656 19.0484 19.8656H18.1899C17.9939 19.8656 17.8857 19.7575 17.8857 19.5682V16.2086C17.8857 15.9855 17.7978 15.8232 17.5477 15.8232C16.9664 15.8232 16.3783 15.8232 15.7969 15.8232C15.5941 15.8232 15.54 16.0193 15.54 16.2694Z" fill="#253081"/>
<path fill-rule="evenodd" clip-rule="evenodd" d="M22.5229 17.8446V16.1884C22.5229 16.0127 22.6717 15.8639 22.8474 15.8639H23.2462C24.2737 15.6476 24.5171 15.046 25.1458 14.37C25.5311 13.9509 25.8691 13.8428 26.1192 14.2822V15.8572H27.0588C27.2345 15.8572 27.3833 16.0059 27.3833 16.1817V17.8378C27.3833 18.0136 27.2345 18.1623 27.0588 18.1623H26.1192V24.9424C26.1192 25.1181 25.9772 25.2669 25.7947 25.2669H24.1385C23.9628 25.2669 23.8141 25.1249 23.8141 24.9424V18.169H22.8474C22.6717 18.169 22.5229 18.0203 22.5229 17.8446Z" fill="#009FE3"/>
<path fill-rule="evenodd" clip-rule="evenodd" d="M34.2442 24.8411C34.2442 25.0641 34.0617 25.2399 33.8386 25.2399H32.2906C32.0676 25.2399 31.885 25.0574 31.885 24.8411V20.0213V18.6153C31.8986 17.9393 30.5398 17.8379 30.5398 18.6153V24.8411C30.5398 25.0641 30.3573 25.2399 30.1343 25.2399H28.5863C28.3632 25.2399 28.1807 25.0574 28.1807 24.8411V16.2088C28.1807 15.9857 28.3632 15.8032 28.5863 15.8032H30.1343C30.3573 15.8032 30.5398 15.9857 30.5398 16.2088V16.3305C31.4457 15.4652 33.0139 15.6004 33.8521 16.4994C35.4272 14.6946 38.1176 16.3034 37.9959 18.284C37.9959 20.4675 37.9756 22.6374 37.9756 24.8411C37.9756 25.0641 37.7931 25.2399 37.57 25.2399H36.022C35.799 25.2399 35.6165 25.0574 35.6165 24.8411C35.6165 22.7523 35.6165 20.7108 35.6165 18.6558C35.5286 17.7906 34.2239 17.9934 34.2239 18.6558C34.2307 20.7108 34.2442 22.7658 34.2442 24.8411Z" fill="#009FE3"/>
</svg>
