<svg width="77" height="32" viewBox="0 0 77 32" fill="none" xmlns="http://www.w3.org/2000/svg">
<path d="M26.3281 11.0336C27.176 10.1857 27.176 8.79991 26.3281 7.95199C25.9162 7.54014 25.3687 7.31241 24.7873 7.31241C24.2058 7.31241 23.6583 7.54014 23.2465 7.95199L23.0187 8.17972L18.6337 5.65048C17.1366 4.78317 15.2857 4.78317 13.7885 5.65048L8.45865 8.72723C6.96146 9.59454 6.03601 11.1935 6.03601 12.9232V19.0768C6.03601 20.8065 6.96146 22.4055 8.45865 23.2728L13.7885 26.3495C15.2857 27.2168 17.1366 27.2168 18.6337 26.3495L23.9636 23.2728C25.4607 22.4055 26.3862 20.8065 26.3862 19.0768V12.9232C26.3862 12.3515 26.2748 11.7991 26.0858 11.2758L26.3281 11.0336ZM25.6449 10.3504H25.64L15.6151 20.3801C15.3777 20.6176 15.0676 20.7338 14.7575 20.7338C14.4474 20.7338 14.1373 20.6176 13.8999 20.3801L10.9927 17.473C10.5179 16.9981 10.5179 16.2326 10.9927 15.7577C11.4676 15.2829 12.2331 15.2829 12.708 15.7577L14.7575 17.8073L23.886 8.68362L23.9345 8.63517C24.1719 8.39775 24.482 8.28147 24.7921 8.28147C25.1022 8.28147 25.4123 8.39775 25.6497 8.63517C26.1245 9.11001 26.1245 9.87556 25.6497 10.3504H25.6449Z" fill="#929CA8"/>
<path d="M37.2173 14.5V7.22727H39.9446C40.5033 7.22727 40.9721 7.33144 41.3509 7.53977C41.732 7.74811 42.0196 8.03456 42.2138 8.39915C42.4103 8.76136 42.5085 9.1733 42.5085 9.63494C42.5085 10.1013 42.4103 10.5156 42.2138 10.8778C42.0173 11.2401 41.7273 11.5253 41.3438 11.7337C40.9602 11.9396 40.4879 12.0426 39.9268 12.0426H38.1193V10.9595H39.7493C40.076 10.9595 40.3435 10.9027 40.5518 10.7891C40.7602 10.6754 40.9141 10.5192 41.0135 10.3203C41.1153 10.1214 41.1662 9.89299 41.1662 9.63494C41.1662 9.37689 41.1153 9.14962 41.0135 8.95312C40.9141 8.75663 40.759 8.60393 40.5483 8.49503C40.34 8.38376 40.0713 8.32812 39.7422 8.32812H38.5348V14.5H37.2173ZM49.878 9.68111H48.5499C48.512 9.4633 48.4422 9.27036 48.3404 9.10227C48.2386 8.93182 48.1119 8.78741 47.9604 8.66903C47.8089 8.55066 47.6361 8.46188 47.4419 8.4027C47.2502 8.34115 47.043 8.31037 46.8205 8.31037C46.4251 8.31037 46.0748 8.4098 45.7694 8.60866C45.464 8.80516 45.2248 9.09399 45.052 9.47514C44.8792 9.85393 44.7928 10.3168 44.7928 10.8636C44.7928 11.42 44.8792 11.8887 45.052 12.2699C45.2272 12.6487 45.4663 12.9351 45.7694 13.1293C46.0748 13.321 46.4239 13.4169 46.8169 13.4169C47.0347 13.4169 47.2383 13.3885 47.4277 13.3317C47.6195 13.2725 47.7911 13.1861 47.9426 13.0724C48.0965 12.9588 48.2256 12.8191 48.3297 12.6534C48.4363 12.4877 48.5096 12.2983 48.5499 12.0852L49.878 12.0923C49.8283 12.438 49.7206 12.7623 49.5549 13.0653C49.3915 13.3684 49.1773 13.6359 48.9121 13.8679C48.647 14.0975 48.3368 14.2775 47.9817 14.4077C47.6266 14.5355 47.2324 14.5994 46.7992 14.5994C46.16 14.5994 45.5894 14.4515 45.0875 14.1555C44.5856 13.8596 44.1903 13.4323 43.9015 12.8736C43.6126 12.3149 43.4682 11.6449 43.4682 10.8636C43.4682 10.08 43.6138 9.41004 43.905 8.85369C44.1962 8.29498 44.5927 7.86766 45.0946 7.57173C45.5965 7.2758 46.1647 7.12784 46.7992 7.12784C47.204 7.12784 47.5804 7.18466 47.9284 7.2983C48.2765 7.41193 48.5866 7.57884 48.8588 7.79901C49.1311 8.01681 49.3548 8.28433 49.53 8.60156C49.7076 8.91643 49.8236 9.27628 49.878 9.68111ZM52.402 7.22727V14.5H51.0845V7.22727H52.402ZM58.7736 14.5H56.3091V7.22727H58.8233C59.5454 7.22727 60.1657 7.37287 60.6841 7.66406C61.205 7.95289 61.6051 8.36837 61.8844 8.91051C62.1638 9.45265 62.3034 10.1013 62.3034 10.8565C62.3034 11.6141 62.1626 12.2652 61.8809 12.8097C61.6015 13.3542 61.1979 13.772 60.6699 14.0632C60.1444 14.3544 59.5123 14.5 58.7736 14.5ZM57.6266 13.3601H58.7097C59.2163 13.3601 59.6389 13.2678 59.9775 13.0831C60.316 12.8961 60.5705 12.6179 60.7409 12.2486C60.9114 11.8769 60.9966 11.4129 60.9966 10.8565C60.9966 10.3002 60.9114 9.83854 60.7409 9.47159C60.5705 9.10227 60.3184 8.82647 59.9846 8.64418C59.6531 8.45952 59.2412 8.36719 58.7488 8.36719H57.6266V13.3601ZM67.5076 9.22656C67.4745 8.91643 67.3348 8.67495 67.0886 8.50213C66.8448 8.32931 66.5275 8.2429 66.1369 8.2429C65.8623 8.2429 65.6267 8.28433 65.4302 8.36719C65.2337 8.45005 65.0834 8.5625 64.9792 8.70455C64.8751 8.84659 64.8218 9.00876 64.8194 9.19105C64.8194 9.34257 64.8538 9.47396 64.9224 9.58523C64.9934 9.6965 65.0893 9.79119 65.21 9.86932C65.3308 9.94508 65.4645 10.009 65.6113 10.0611C65.7581 10.1132 65.9061 10.157 66.0552 10.1925L66.737 10.3629C67.0117 10.4268 67.2756 10.5133 67.5289 10.6222C67.7846 10.7311 68.0131 10.8684 68.2143 11.0341C68.4179 11.1998 68.5789 11.3999 68.6973 11.6342C68.8156 11.8686 68.8748 12.1432 68.8748 12.4581C68.8748 12.8842 68.7659 13.2595 68.5481 13.5838C68.3303 13.9058 68.0154 14.1579 67.6035 14.3402C67.194 14.5201 66.698 14.6101 66.1156 14.6101C65.5498 14.6101 65.0585 14.5225 64.6419 14.3473C64.2276 14.1721 63.9032 13.9164 63.6689 13.5803C63.4368 13.2441 63.3114 12.8345 63.2924 12.3516H64.5886C64.6075 12.6049 64.6857 12.8156 64.823 12.9837C64.9603 13.1518 65.139 13.2772 65.3592 13.3601C65.5817 13.4429 65.8303 13.4844 66.1049 13.4844C66.3914 13.4844 66.6423 13.4418 66.8578 13.3565C67.0756 13.2689 67.246 13.1482 67.3691 12.9943C67.4922 12.8381 67.555 12.6558 67.5574 12.4474C67.555 12.258 67.4993 12.1018 67.3904 11.9787C67.2815 11.8532 67.1288 11.7491 66.9324 11.6662C66.7382 11.581 66.5109 11.5052 66.2505 11.4389L65.4231 11.2259C64.8242 11.072 64.3507 10.8388 64.0027 10.5263C63.657 10.2114 63.4842 9.79356 63.4842 9.27273C63.4842 8.84422 63.6002 8.46899 63.8322 8.14702C64.0666 7.82505 64.385 7.57528 64.7875 7.39773C65.1899 7.2178 65.6457 7.12784 66.1547 7.12784C66.6708 7.12784 67.1229 7.2178 67.5112 7.39773C67.9018 7.57528 68.2084 7.82268 68.4309 8.13991C68.6535 8.45478 68.7683 8.817 68.7754 9.22656H67.5076ZM74.0018 9.22656C73.9686 8.91643 73.829 8.67495 73.5827 8.50213C73.3389 8.32931 73.0217 8.2429 72.631 8.2429C72.3564 8.2429 72.1209 8.28433 71.9244 8.36719C71.7279 8.45005 71.5775 8.5625 71.4734 8.70455C71.3692 8.84659 71.3159 9.00876 71.3136 9.19105C71.3136 9.34257 71.3479 9.47396 71.4165 9.58523C71.4876 9.6965 71.5835 9.79119 71.7042 9.86932C71.8249 9.94508 71.9587 10.009 72.1055 10.0611C72.2522 10.1132 72.4002 10.157 72.5494 10.1925L73.2312 10.3629C73.5058 10.4268 73.7698 10.5133 74.0231 10.6222C74.2788 10.7311 74.5072 10.8684 74.7085 11.0341C74.9121 11.1998 75.073 11.3999 75.1914 11.6342C75.3098 11.8686 75.369 12.1432 75.369 12.4581C75.369 12.8842 75.2601 13.2595 75.0423 13.5838C74.8245 13.9058 74.5096 14.1579 74.0977 14.3402C73.6881 14.5201 73.1921 14.6101 72.6097 14.6101C72.0439 14.6101 71.5527 14.5225 71.136 14.3473C70.7217 14.1721 70.3974 13.9164 70.163 13.5803C69.931 13.2441 69.8055 12.8345 69.7866 12.3516H71.0827C71.1017 12.6049 71.1798 12.8156 71.3171 12.9837C71.4544 13.1518 71.6332 13.2772 71.8533 13.3601C72.0759 13.4429 72.3245 13.4844 72.5991 13.4844C72.8855 13.4844 73.1365 13.4418 73.3519 13.3565C73.5697 13.2689 73.7402 13.1482 73.8633 12.9943C73.9864 12.8381 74.0491 12.6558 74.0515 12.4474C74.0491 12.258 73.9935 12.1018 73.8846 11.9787C73.7757 11.8532 73.623 11.7491 73.4265 11.6662C73.2324 11.581 73.0051 11.5052 72.7447 11.4389L71.9173 11.2259C71.3183 11.072 70.8448 10.8388 70.4968 10.5263C70.1512 10.2114 69.9783 9.79356 69.9783 9.27273C69.9783 8.84422 70.0943 8.46899 70.3263 8.14702C70.5607 7.82505 70.8791 7.57528 71.2816 7.39773C71.6841 7.2178 72.1398 7.12784 72.6488 7.12784C73.1649 7.12784 73.6171 7.2178 74.0053 7.39773C74.396 7.57528 74.7025 7.82268 74.9251 8.13991C75.1476 8.45478 75.2624 8.817 75.2695 9.22656H74.0018ZM42.5597 20H41.767C41.7202 19.772 41.6381 19.5717 41.521 19.3991C41.4059 19.2266 41.2653 19.0817 41.0991 18.9645C40.935 18.8452 40.7528 18.7557 40.5526 18.696C40.3523 18.6364 40.1435 18.6065 39.9261 18.6065C39.5298 18.6065 39.1708 18.7067 38.8491 18.907C38.5295 19.1072 38.2749 19.4023 38.0852 19.7923C37.8977 20.1822 37.804 20.6605 37.804 21.2273C37.804 21.794 37.8977 22.2724 38.0852 22.6623C38.2749 23.0522 38.5295 23.3473 38.8491 23.5476C39.1708 23.7479 39.5298 23.848 39.9261 23.848C40.1435 23.848 40.3523 23.8182 40.5526 23.7585C40.7528 23.6989 40.935 23.6104 41.0991 23.4933C41.2653 23.3739 41.4059 23.228 41.521 23.0554C41.6381 22.8807 41.7202 22.6804 41.767 22.4545H42.5597C42.5 22.7891 42.3913 23.0884 42.2337 23.3526C42.076 23.6168 41.88 23.8416 41.6456 24.027C41.4112 24.2102 41.1481 24.3498 40.8562 24.4457C40.5664 24.5415 40.2564 24.5895 39.9261 24.5895C39.3679 24.5895 38.8714 24.4531 38.4368 24.1804C38.0021 23.9077 37.6602 23.5199 37.4109 23.017C37.1616 22.5142 37.0369 21.9176 37.0369 21.2273C37.0369 20.5369 37.1616 19.9403 37.4109 19.4375C37.6602 18.9347 38.0021 18.5469 38.4368 18.2741C38.8714 18.0014 39.3679 17.8651 39.9261 17.8651C40.2564 17.8651 40.5664 17.913 40.8562 18.0089C41.1481 18.1048 41.4112 18.2454 41.6456 18.4308C41.88 18.614 42.076 18.8377 42.2337 19.1019C42.3913 19.364 42.5 19.6634 42.5597 20ZM45.7964 24.6023C45.3234 24.6023 44.9154 24.4979 44.5724 24.2891C44.2314 24.0781 43.9683 23.7841 43.7829 23.407C43.5997 23.0277 43.5081 22.5866 43.5081 22.0838C43.5081 21.581 43.5997 21.1378 43.7829 20.7543C43.9683 20.3686 44.2261 20.0682 44.5564 19.853C44.8888 19.6357 45.2765 19.527 45.7197 19.527C45.9754 19.527 46.2279 19.5696 46.4772 19.6548C46.7265 19.7401 46.9534 19.8786 47.1579 20.0703C47.3625 20.2599 47.5255 20.5114 47.6469 20.8246C47.7684 21.1378 47.8291 21.5234 47.8291 21.9815V22.3011H44.045V21.6491H47.0621C47.0621 21.3722 47.0067 21.125 46.8959 20.9077C46.7872 20.6903 46.6317 20.5188 46.4292 20.3931C46.229 20.2674 45.9925 20.2045 45.7197 20.2045C45.4193 20.2045 45.1594 20.2791 44.9399 20.4283C44.7226 20.5753 44.5553 20.767 44.4381 21.0036C44.3209 21.2401 44.2623 21.4936 44.2623 21.7642V22.1989C44.2623 22.5696 44.3263 22.8839 44.4541 23.1417C44.5841 23.3974 44.7641 23.5923 44.9942 23.7266C45.2243 23.8587 45.4917 23.9247 45.7964 23.9247C45.9946 23.9247 46.1736 23.897 46.3334 23.8416C46.4953 23.7841 46.6349 23.6989 46.752 23.5859C46.8692 23.4709 46.9598 23.3281 47.0237 23.1577L47.7524 23.3622C47.6757 23.6094 47.5468 23.8267 47.3657 24.0142C47.1846 24.1996 46.9608 24.3445 46.6945 24.4489C46.4282 24.5511 46.1288 24.6023 45.7964 24.6023ZM48.9765 24.5V19.5909H49.7052V20.3324H49.7563C49.8458 20.0895 50.0077 19.8924 50.2421 19.7411C50.4765 19.5898 50.7407 19.5142 51.0347 19.5142C51.0901 19.5142 51.1594 19.5153 51.2425 19.5174C51.3256 19.5195 51.3884 19.5227 51.431 19.527V20.294C51.4055 20.2876 51.3469 20.2781 51.2552 20.2653C51.1657 20.2504 51.0709 20.2429 50.9708 20.2429C50.7322 20.2429 50.5191 20.293 50.3316 20.3931C50.1462 20.4911 49.9992 20.6275 49.8905 20.8022C49.784 20.9748 49.7307 21.1719 49.7307 21.3935V24.5H48.9765ZM54.7677 19.5909V20.2301H52.2236V19.5909H54.7677ZM52.9651 18.4148H53.7194V23.0938C53.7194 23.3068 53.7503 23.4666 53.8121 23.5732C53.876 23.6776 53.9569 23.7479 54.055 23.7841C54.1551 23.8182 54.2606 23.8352 54.3714 23.8352C54.4545 23.8352 54.5226 23.831 54.5759 23.8224C54.6292 23.8118 54.6718 23.8033 54.7037 23.7969L54.8572 24.4744C54.806 24.4936 54.7346 24.5128 54.643 24.532C54.5514 24.5533 54.4353 24.5639 54.2947 24.5639C54.0816 24.5639 53.8728 24.5181 53.6682 24.4265C53.4658 24.3349 53.2975 24.1953 53.1633 24.0078C53.0312 23.8203 52.9651 23.5838 52.9651 23.2983V18.4148ZM55.9023 24.5V19.5909H56.6565V24.5H55.9023ZM56.2858 18.7727C56.1388 18.7727 56.012 18.7227 55.9055 18.6225C55.801 18.5224 55.7488 18.402 55.7488 18.2614C55.7488 18.1207 55.801 18.0004 55.9055 17.9002C56.012 17.8001 56.1388 17.75 56.2858 17.75C56.4328 17.75 56.5585 17.8001 56.6629 17.9002C56.7694 18.0004 56.8227 18.1207 56.8227 18.2614C56.8227 18.402 56.7694 18.5224 56.6629 18.6225C56.5585 18.7227 56.4328 18.7727 56.2858 18.7727ZM60.2241 19.5909V20.2301H57.5778V19.5909H60.2241ZM58.3704 24.5V18.9134C58.3704 18.6321 58.4364 18.3977 58.5685 18.2102C58.7006 18.0227 58.8722 17.8821 59.0831 17.7884C59.294 17.6946 59.5167 17.6477 59.7511 17.6477C59.9364 17.6477 60.0877 17.6626 60.2049 17.6925C60.3221 17.7223 60.4094 17.75 60.467 17.7756L60.2496 18.4276C60.2113 18.4148 60.158 18.3988 60.0898 18.3796C60.0238 18.3604 59.9364 18.3509 59.8278 18.3509C59.5785 18.3509 59.3984 18.4137 59.2876 18.5394C59.179 18.6651 59.1246 18.8494 59.1246 19.0923V24.5H58.3704ZM61.2812 24.5V19.5909H62.0354V24.5H61.2812ZM61.6647 18.7727C61.5177 18.7727 61.3909 18.7227 61.2844 18.6225C61.18 18.5224 61.1278 18.402 61.1278 18.2614C61.1278 18.1207 61.18 18.0004 61.2844 17.9002C61.3909 17.8001 61.5177 17.75 61.6647 17.75C61.8117 17.75 61.9374 17.8001 62.0418 17.9002C62.1483 18.0004 62.2016 18.1207 62.2016 18.2614C62.2016 18.402 62.1483 18.5224 62.0418 18.6225C61.9374 18.7227 61.8117 18.7727 61.6647 18.7727ZM65.4751 24.6023C65.0021 24.6023 64.5941 24.4979 64.2511 24.2891C63.9102 24.0781 63.647 23.7841 63.4616 23.407C63.2784 23.0277 63.1868 22.5866 63.1868 22.0838C63.1868 21.581 63.2784 21.1378 63.4616 20.7543C63.647 20.3686 63.9048 20.0682 64.2351 19.853C64.5675 19.6357 64.9553 19.527 65.3984 19.527C65.6541 19.527 65.9066 19.5696 66.1559 19.6548C66.4052 19.7401 66.6321 19.8786 66.8366 20.0703C67.0412 20.2599 67.2042 20.5114 67.3256 20.8246C67.4471 21.1378 67.5078 21.5234 67.5078 21.9815V22.3011H63.7237V21.6491H66.7408C66.7408 21.3722 66.6854 21.125 66.5746 20.9077C66.4659 20.6903 66.3104 20.5188 66.108 20.3931C65.9077 20.2674 65.6712 20.2045 65.3984 20.2045C65.098 20.2045 64.8381 20.2791 64.6186 20.4283C64.4013 20.5753 64.234 20.767 64.1168 21.0036C63.9996 21.2401 63.9411 21.4936 63.9411 21.7642V22.1989C63.9411 22.5696 64.005 22.8839 64.1328 23.1417C64.2628 23.3974 64.4428 23.5923 64.6729 23.7266C64.9031 23.8587 65.1705 23.9247 65.4751 23.9247C65.6733 23.9247 65.8523 23.897 66.0121 23.8416C66.174 23.7841 66.3136 23.6989 66.4308 23.5859C66.5479 23.4709 66.6385 23.3281 66.7024 23.1577L67.4311 23.3622C67.3544 23.6094 67.2255 23.8267 67.0444 24.0142C66.8633 24.1996 66.6396 24.3445 66.3732 24.4489C66.1069 24.5511 65.8075 24.6023 65.4751 24.6023ZM70.5089 24.6023C70.0998 24.6023 69.7386 24.4989 69.4254 24.2923C69.1122 24.0835 68.8672 23.7894 68.6903 23.4102C68.5135 23.0288 68.4251 22.5781 68.4251 22.0582C68.4251 21.5426 68.5135 21.0952 68.6903 20.7159C68.8672 20.3366 69.1133 20.0437 69.4286 19.837C69.744 19.6303 70.1083 19.527 70.5217 19.527C70.8413 19.527 71.0938 19.5803 71.2791 19.6868C71.4666 19.7912 71.6094 19.9105 71.7074 20.0447C71.8075 20.1768 71.8853 20.2855 71.9407 20.3707H72.0046V17.9545H72.7589V24.5H72.0302V23.7457H71.9407C71.8853 23.8352 71.8065 23.9482 71.7042 24.0845C71.6019 24.2187 71.456 24.3391 71.2663 24.4457C71.0767 24.5501 70.8242 24.6023 70.5089 24.6023ZM70.6112 23.9247C70.9137 23.9247 71.1694 23.8459 71.3782 23.6882C71.587 23.5284 71.7457 23.3079 71.8544 23.0266C71.9631 22.7433 72.0174 22.4162 72.0174 22.0455C72.0174 21.679 71.9641 21.3583 71.8576 21.0835C71.7511 20.8065 71.5934 20.5913 71.3846 20.4379C71.1758 20.2823 70.918 20.2045 70.6112 20.2045C70.2915 20.2045 70.0252 20.2866 69.8121 20.4506C69.6012 20.6126 69.4425 20.8331 69.3359 21.1122C69.2315 21.3892 69.1793 21.7003 69.1793 22.0455C69.1793 22.3949 69.2326 22.7124 69.3391 22.9979C69.4478 23.2812 69.6076 23.5071 69.8185 23.6754C70.0316 23.8416 70.2958 23.9247 70.6112 23.9247Z" fill="#405065"/>
</svg>
