<svg width="36" height="36" viewBox="0 0 36 36" fill="none" xmlns="http://www.w3.org/2000/svg">
<path d="M18 5L21.3186 7.41009H25.4196L26.6814 11.3091L30 13.7192L28.7382 17.6183L30 21.5173L26.6814 23.9274L25.4196 27.8265H21.3186L18 30.2366L14.6814 27.8265H10.5804L9.31861 23.9274L6 21.5173L7.26183 17.6183L6 13.7192L9.31861 11.3091L10.5804 7.41009H14.6814L18 5Z" stroke="#101828" stroke-width="2" stroke-miterlimit="10" stroke-linecap="round" stroke-linejoin="round"/>
<path d="M20.6751 14.9434L15.325 20.2935" stroke="#101828" stroke-width="2" stroke-linecap="round" stroke-linejoin="round"/>
<path d="M14.2144 15.7257C14.5629 15.7257 14.8453 15.4432 14.8453 15.0948C14.8453 14.7463 14.5629 14.4639 14.2144 14.4639C13.866 14.4639 13.5835 14.7463 13.5835 15.0948C13.5835 15.4432 13.866 15.7257 14.2144 15.7257Z" fill="white" stroke="#101828" stroke-width="2" stroke-linecap="round" stroke-linejoin="round"/>
<path d="M21.7855 20.7731C22.1339 20.7731 22.4164 20.4906 22.4164 20.1421C22.4164 19.7937 22.1339 19.5112 21.7855 19.5112C21.437 19.5112 21.1545 19.7937 21.1545 20.1421C21.1545 20.4906 21.437 20.7731 21.7855 20.7731Z" fill="white" stroke="#101828" stroke-width="2" stroke-linecap="round" stroke-linejoin="round"/>
</svg>
