<svg width="40" height="40" viewBox="0 0 40 40" fill="none" xmlns="http://www.w3.org/2000/svg">
<path d="M20 5C11.72 5 5 11.72 5 20C5 28.28 11.72 35 20 35C28.28 35 35 28.28 35 20C35 11.72 28.28 5 20 5ZM26.42 17.27H24.5V29.27C24.5 29.55 24.28 29.77 24 29.77H22.8H22.79C22.06 29.76 21.47 29.17 21.48 28.44V25.74C20.74 26.03 19.94 26.18 19.14 26.16C16.45 26.16 14.84 24.33 14.84 21.33V17.33H13.6C13.58 17.33 13.57 17.33 13.55 17.33C13 17.3 12.57 16.83 12.6 16.28V15.41C12.6 15.19 12.78 15.01 13 15.01H20.66L15.66 10.22C15.62 10.18 15.59 10.13 15.58 10.08C15.53 9.91 15.63 9.72 15.8 9.67L17.4 9.19C18.02 9 18.7 9.2 19.13 9.69L23.74 15H25.74C25.75 15 25.75 15 25.76 15C26.34 15.01 26.8 15.49 26.79 16.07L26.82 16.87C26.82 17.09 26.64 17.27 26.42 17.27Z" fill="#5F259F"/>
<path d="M17.8101 17.3799V21.3799C17.8101 22.9199 18.4401 23.5999 19.8101 23.5999C20.3801 23.5999 20.9501 23.4899 21.4801 23.2699L21.4701 17.3799H17.8101Z" fill="#5F259F"/>
</svg>
