<svg width="79" height="32" viewBox="0 0 79 32" fill="none" xmlns="http://www.w3.org/2000/svg">
<path fill-rule="evenodd" clip-rule="evenodd" d="M27.4638 6.2845V13.3496L27.4678 13.3457L28.9638 13.9096V21.3821C28.2706 21.5113 27.5657 21.6249 26.8529 21.7306C26.1088 23.7632 24.7146 25.5334 22.8269 26.724L18.5894 29.3949C17.3126 30.2017 15.6874 30.2017 14.4106 29.3949L10.1731 26.724C8.28936 25.5334 6.89122 23.7632 6.14711 21.7306C5.43433 21.6249 4.72939 21.5113 4.03619 21.3821V13.9096L5.53224 13.3457V6.2845C5.53224 4.28324 7.04396 2.60312 9.03738 2.38772C11.3911 2.13707 13.9015 2 16.498 2C19.0946 2 21.6011 2.13707 23.9587 2.38772C25.9521 2.60312 27.4638 4.27932 27.4638 6.2845ZM24.5266 10.941C24.5266 10.6082 24.4248 10.3497 24.225 10.1656C24.0214 9.98154 23.7433 9.88755 23.4104 9.88755C23.0775 9.88755 22.8073 9.98154 22.6036 10.1695C22.4 10.3575 22.2982 10.6082 22.2982 10.9175V11.1643C22.2982 11.4893 22.4039 11.7439 22.6076 11.9319C22.8112 12.116 23.0775 12.2099 23.4182 12.2099C23.759 12.2099 24.0292 12.116 24.2289 11.928C24.4287 11.74 24.5266 11.4893 24.5266 11.1799V10.941ZM21.2643 11.7713L23.7041 7.86279L23.1637 7.59256L20.7238 11.5011L21.2643 11.7713ZM20.2264 7.35758C20.0267 7.54556 19.9249 7.79621 19.9249 8.1056H19.9288V8.34842C19.9288 8.67347 20.0306 8.92804 20.2342 9.11602C20.4379 9.30009 20.7042 9.39408 21.0449 9.39408C21.3857 9.39408 21.652 9.30009 21.8517 9.11211C22.0514 8.92412 22.1493 8.67739 22.1493 8.368V8.12127C22.1493 7.80013 22.0514 7.54165 21.8517 7.35366C21.652 7.16568 21.3778 7.07168 21.0371 7.07168C20.6964 7.07168 20.4262 7.16568 20.2264 7.35758ZM16.2905 7.62389C15.9889 7.99203 15.8362 8.5129 15.8362 9.18652V10.099C15.8362 10.7687 15.9889 11.2896 16.2944 11.6577C16.5999 12.0259 17.0385 12.2099 17.5868 12.2099C18.1351 12.2099 18.5659 12.0298 18.8674 11.6617C19.169 11.2935 19.3217 10.7726 19.3217 10.099V9.19043C19.3217 8.51682 19.169 7.99594 18.8635 7.62781C18.558 7.25967 18.1272 7.0756 17.575 7.0756C17.0228 7.0756 16.592 7.25575 16.2905 7.62389ZM12.2175 7.62389C11.9159 7.99203 11.7632 8.5129 11.7632 9.18652V10.099C11.7632 10.7687 11.9159 11.2896 12.2214 11.6577C12.5269 12.0259 12.9655 12.2099 13.5138 12.2099C14.0621 12.2099 14.4929 12.0298 14.7944 11.6617C15.096 11.2935 15.2487 10.7726 15.2487 10.099V9.19043C15.2487 8.51682 15.096 7.99594 14.7905 7.62781C14.485 7.25967 14.0542 7.0756 13.502 7.0756C12.9498 7.0756 12.519 7.25575 12.2175 7.62389ZM10.8663 7.14218L8.67316 7.90195V8.77922L9.81282 8.44632V12.1395H10.9721V7.14218H10.8663ZM28.5683 21.0616V14.3874C24.8242 15.0532 20.6572 15.4018 16.498 15.4018C12.3389 15.4018 8.17578 15.0493 4.42783 14.3874V21.0648C4.98395 21.1627 5.54791 21.2528 6.1197 21.339C6.17453 21.3311 6.26852 21.3468 6.39776 21.3781C9.60525 21.8403 13.0516 22.087 16.502 22.087C20.6675 22.087 24.8291 21.7309 28.5683 21.0616ZM21.045 8.76737C21.2839 8.76737 21.4053 8.61463 21.4053 8.30916V8.10551C21.4053 7.98802 21.374 7.89011 21.3074 7.81178C21.2448 7.73737 21.1547 7.69821 21.0372 7.69821C20.9197 7.69821 20.8375 7.73345 20.7709 7.80786C20.7043 7.88228 20.673 7.9841 20.673 8.10942V8.36399C20.673 8.48148 20.7043 8.57939 20.7709 8.6538C20.8375 8.72821 20.9275 8.76346 21.045 8.76346V8.76737ZM18.0176 11.0665C17.9236 11.2349 17.7787 11.3172 17.5828 11.3172V11.3133C17.3792 11.3133 17.2304 11.2271 17.1364 11.0548C17.0424 10.8825 16.9954 10.6083 16.9954 10.2363V8.95954C17.0032 8.62665 17.0502 8.376 17.1403 8.21151C17.2304 8.04703 17.3714 7.96478 17.575 7.96478C17.7787 7.96478 17.9275 8.05486 18.0215 8.2311C18.1155 8.41125 18.1625 8.67756 18.1625 9.03787V10.2754C18.1585 10.6357 18.1115 10.8981 18.0176 11.0665ZM6.98135 16.2634C7.23199 16.3026 7.45131 16.3809 7.63929 16.5023L7.64713 16.4984C7.8312 16.6198 7.96827 16.7687 8.05443 16.9527C8.13667 17.1368 8.16409 17.3326 8.13275 17.548L7.29074 17.4188C7.31032 17.2778 7.28291 17.1603 7.20849 17.0663C7.13408 16.9723 7.02051 16.9175 6.87169 16.894C6.72287 16.8744 6.59754 16.8861 6.49963 16.941C6.40172 16.9958 6.3469 17.0741 6.33123 17.176C6.31557 17.266 6.35081 17.3561 6.43697 17.4423C6.52313 17.5323 6.67979 17.6303 6.91085 17.7477C7.14192 17.8652 7.3299 17.9788 7.47089 18.0924C7.81553 18.3704 7.96044 18.6994 7.90169 19.0832C7.85469 19.3887 7.70196 19.6119 7.44348 19.7529C7.185 19.8939 6.85602 19.9331 6.45264 19.8704C6.17066 19.8273 5.92001 19.7373 5.70461 19.6002C5.48921 19.4631 5.33648 19.2986 5.2464 19.1028C5.15632 18.9109 5.12891 18.6955 5.16416 18.4644L6.01401 18.5937C5.98659 18.7817 6.01401 18.9266 6.09625 19.0323C6.18241 19.1381 6.33123 19.2085 6.55055 19.2399C6.69154 19.2634 6.80511 19.2477 6.89519 19.2007C6.98526 19.1537 7.04009 19.0754 7.05576 18.9657C7.07534 18.8404 7.04792 18.7386 6.9696 18.6563C6.89127 18.5741 6.74636 18.4762 6.5388 18.3704C6.32731 18.2608 6.15891 18.1629 6.02967 18.0728C5.6067 17.7791 5.42655 17.4384 5.4853 17.0467C5.51271 16.8509 5.59496 16.6903 5.73203 16.5572C5.86518 16.424 6.04534 16.3339 6.26465 16.283C6.48397 16.2321 6.72287 16.2243 6.98135 16.2634ZM8.41506 20.0751L8.40694 20.0742L8.41477 20.0781L8.41506 20.0751ZM8.41506 20.0751C8.5185 20.0869 9.59578 20.2085 10.8429 20.3053L10.9056 19.6786L9.32337 19.5259L9.40561 18.68L10.745 18.8092L10.8077 18.1787L9.46827 18.0494L9.54268 17.3053L11.1288 17.462L11.1954 16.8001C11.1954 16.8001 9.87557 16.71 8.7555 16.5808L8.41506 20.0751ZM12.2565 18.48C12.28 18.1314 12.3427 17.8808 12.4484 17.7241C12.5541 17.5714 12.7147 17.497 12.9262 17.5087C13.1377 17.5204 13.2904 17.5753 13.3883 17.6732C13.4862 17.7711 13.5332 17.9317 13.5293 18.1471L14.3831 18.1901C14.3674 17.7907 14.2343 17.4695 13.9836 17.2306C13.733 16.9917 13.3922 16.8625 12.9614 16.839C12.6638 16.8233 12.3975 16.8821 12.1625 17.0113C11.9275 17.1406 11.7435 17.3364 11.6103 17.5909C11.4771 17.8455 11.4027 18.1471 11.3831 18.4956L11.3753 18.6719C11.3479 19.2241 11.4615 19.6627 11.7121 19.976C11.9667 20.2932 12.3231 20.4616 12.7891 20.4851C13.0711 20.5008 13.3257 20.4577 13.5489 20.3676C13.776 20.2736 13.9523 20.1366 14.0815 19.9525C14.2108 19.7684 14.2891 19.553 14.3126 19.3102L13.4627 19.2671C13.4471 19.4669 13.3844 19.6118 13.2747 19.6979C13.1651 19.7841 13.0124 19.8233 12.8165 19.8154C12.5855 19.8037 12.4249 19.7136 12.3387 19.5491C12.2526 19.3807 12.2173 19.1105 12.2369 18.7306L12.2487 18.48H12.2565ZM15.7343 16.9798L15.7264 19.3336H15.7225C15.7303 19.7213 15.9105 19.9171 16.263 19.9171C16.4392 19.9171 16.5763 19.8701 16.6664 19.7722C16.7564 19.6743 16.8034 19.5176 16.8034 19.2983L16.8113 16.9838C17.199 16.9838 17.6689 16.9759 17.6689 16.9759L17.6611 19.3062C17.6611 19.5725 17.6063 19.7996 17.4927 19.9915C17.3791 20.1834 17.2186 20.3283 17.0071 20.4301C16.7956 20.532 16.5489 20.579 16.263 20.579C15.8283 20.5751 15.4875 20.4615 15.2408 20.2382C14.9941 20.0111 14.8648 19.7056 14.8648 19.314L14.8727 16.9642C15.2447 16.9759 15.7343 16.9798 15.7343 16.9798ZM19.2357 20.4811L19.1809 19.2279L19.643 19.2083L20.3244 20.438L21.2409 20.3989V20.3636L20.438 18.9616C20.6456 18.8519 20.7983 18.7148 20.8884 18.5464C20.9824 18.3819 21.0215 18.1744 21.0137 17.9276C20.998 17.5869 20.8688 17.3284 20.626 17.1522C20.3832 16.976 20.0738 16.8976 19.6273 16.9211C19.6273 16.9211 18.7657 16.9564 18.2292 16.9681L18.3819 20.5242L19.2357 20.4889V20.4811ZM19.6547 17.5673C19.8153 17.5595 19.9406 17.5987 20.0268 17.6809C20.1129 17.7632 20.1599 17.8806 20.1678 18.0373C20.1756 18.19 20.1364 18.3114 20.0581 18.4015C19.9798 18.4916 19.8584 18.5386 19.6978 18.5464L19.1574 18.5699L19.1143 17.5908L19.6547 17.5673ZM24.2133 19.4788L24.2681 20.1094H24.2759C23.3164 20.2151 21.84 20.3287 21.84 20.3287L21.5267 16.8157C22.3648 16.7687 23.9666 16.6082 23.9666 16.6082L24.0253 17.2583L22.4353 17.3993L22.5018 18.1434L23.8412 18.022L23.8961 18.6525L22.5567 18.7739L22.6311 19.6198L24.2133 19.4788ZM25.9835 19.9057C26.289 19.8587 26.5514 19.749 26.7786 19.5689C27.0057 19.3887 27.1663 19.1616 27.2681 18.8874C27.366 18.6133 27.3934 18.3156 27.3503 17.9945L27.3268 17.8339C27.2799 17.5167 27.1663 17.2386 26.994 16.9997C26.8216 16.7608 26.5945 16.5924 26.3282 16.4867C26.0619 16.381 25.7838 16.3888 25.4705 16.4358L24.3308 16.5689L24.8282 20.0467L25.9875 19.9057H25.9835ZM25.5488 17.0506C25.7995 17.0154 25.9992 17.0741 26.1559 17.2269C26.3125 17.3796 26.4143 17.6264 26.4613 17.9671L26.4848 18.1198C26.5318 18.4605 26.5044 18.7268 26.3987 18.9188C26.2929 19.1107 26.1206 19.2242 25.8778 19.2595L25.5841 19.3026L25.2668 17.0937L25.5527 17.0546L25.5488 17.0506ZM13.5137 11.3172C13.7095 11.3172 13.8545 11.2349 13.9484 11.0665C14.0424 10.8981 14.0894 10.6357 14.0934 10.2754V9.03787C14.0934 8.67756 14.0464 8.41125 13.9524 8.2311C13.8584 8.05486 13.7095 7.96478 13.5059 7.96478C13.3022 7.96478 13.1613 8.04703 13.0712 8.21151C12.9811 8.376 12.9341 8.62665 12.9263 8.95954V10.2363C12.9263 10.6083 12.9733 10.8825 13.0673 11.0548C13.1613 11.2271 13.3101 11.3133 13.5137 11.3133V11.3172ZM23.0423 10.9019C23.0463 10.7844 23.0815 10.6904 23.1481 10.6199C23.2107 10.5495 23.2969 10.5142 23.4105 10.5142C23.524 10.5142 23.6141 10.5495 23.6807 10.6239C23.7473 10.6983 23.7786 10.7962 23.7786 10.9176V11.2701C23.759 11.4776 23.6415 11.5834 23.4183 11.5834C23.3126 11.5834 23.2264 11.5442 23.152 11.462C23.0776 11.3797 23.0423 11.2857 23.0423 11.18V10.9019Z" fill="#929CA8"/>
<path d="M41.1697 9.22656C41.1366 8.91643 40.9969 8.67495 40.7507 8.50213C40.5069 8.32931 40.1896 8.2429 39.799 8.2429C39.5244 8.2429 39.2888 8.28433 39.0923 8.36719C38.8958 8.45005 38.7455 8.5625 38.6413 8.70455C38.5372 8.84659 38.4839 9.00876 38.4815 9.19105C38.4815 9.34257 38.5159 9.47396 38.5845 9.58523C38.6555 9.6965 38.7514 9.79119 38.8722 9.86932C38.9929 9.94508 39.1267 10.009 39.2734 10.0611C39.4202 10.1132 39.5682 10.157 39.7173 10.1925L40.3991 10.3629C40.6738 10.4268 40.9377 10.5133 41.1911 10.6222C41.4467 10.7311 41.6752 10.8684 41.8764 11.0341C42.08 11.1998 42.241 11.3999 42.3594 11.6342C42.4777 11.8686 42.5369 12.1432 42.5369 12.4581C42.5369 12.8842 42.428 13.2595 42.2102 13.5838C41.9924 13.9058 41.6776 14.1579 41.2656 14.3402C40.8561 14.5201 40.3601 14.6101 39.7777 14.6101C39.2119 14.6101 38.7206 14.5225 38.304 14.3473C37.8897 14.1721 37.5653 13.9164 37.331 13.5803C37.099 13.2441 36.9735 12.8345 36.9545 12.3516H38.2507C38.2696 12.6049 38.3478 12.8156 38.4851 12.9837C38.6224 13.1518 38.8011 13.2772 39.0213 13.3601C39.2438 13.4429 39.4924 13.4844 39.767 13.4844C40.0535 13.4844 40.3045 13.4418 40.5199 13.3565C40.7377 13.2689 40.9081 13.1482 41.0312 12.9943C41.1544 12.8381 41.2171 12.6558 41.2195 12.4474C41.2171 12.258 41.1615 12.1018 41.0526 11.9787C40.9437 11.8532 40.791 11.7491 40.5945 11.6662C40.4003 11.581 40.1731 11.5052 39.9126 11.4389L39.0852 11.2259C38.4863 11.072 38.0128 10.8388 37.6648 10.5263C37.3191 10.2114 37.1463 9.79356 37.1463 9.27273C37.1463 8.84422 37.2623 8.46899 37.4943 8.14702C37.7287 7.82505 38.0471 7.57528 38.4496 7.39773C38.852 7.2178 39.3078 7.12784 39.8168 7.12784C40.3329 7.12784 40.785 7.2178 41.1733 7.39773C41.5639 7.57528 41.8705 7.82268 42.093 8.13991C42.3156 8.45478 42.4304 8.817 42.4375 9.22656H41.1697ZM46.0694 14.6065C45.5225 14.6065 45.0502 14.4929 44.6525 14.2656C44.2572 14.036 43.9529 13.7116 43.7399 13.2926C43.5268 12.8712 43.4203 12.3752 43.4203 11.8047C43.4203 11.2436 43.5268 10.7512 43.7399 10.3274C43.9553 9.90128 44.256 9.56984 44.6419 9.3331C45.0278 9.09399 45.4811 8.97443 46.002 8.97443C46.3381 8.97443 46.6554 9.02888 46.9537 9.13778C47.2543 9.24432 47.5195 9.41004 47.7491 9.63494C47.9811 9.85985 48.1634 10.1463 48.296 10.4943C48.4286 10.84 48.4949 11.2519 48.4949 11.7301V12.1243H44.024V11.2578H47.2626C47.2602 11.0116 47.207 10.7926 47.1028 10.6009C46.9986 10.4067 46.853 10.254 46.666 10.1428C46.4814 10.0315 46.2659 9.97585 46.0197 9.97585C45.7569 9.97585 45.5261 10.0398 45.3272 10.1676C45.1284 10.2931 44.9733 10.4588 44.862 10.6648C44.7531 10.8684 44.6975 11.0921 44.6951 11.3359V12.0923C44.6951 12.4096 44.7531 12.6818 44.8691 12.9091C44.9851 13.134 45.1473 13.3068 45.3556 13.4276C45.564 13.5459 45.8078 13.6051 46.0872 13.6051C46.2742 13.6051 46.4435 13.5791 46.595 13.527C46.7465 13.4725 46.8779 13.3932 46.9892 13.2891C47.1004 13.1849 47.1845 13.0559 47.2413 12.902L48.4416 13.0369C48.3658 13.3542 48.2214 13.6312 48.0083 13.8679C47.7976 14.1023 47.5278 14.2846 47.1987 14.4148C46.8696 14.5426 46.4932 14.6065 46.0694 14.6065ZM51.9616 14.6065C51.4171 14.6065 50.9496 14.487 50.5589 14.2479C50.1707 14.0088 49.8712 13.6785 49.6605 13.2571C49.4522 12.8333 49.348 12.3456 49.348 11.794C49.348 11.2401 49.4545 10.7512 49.6676 10.3274C49.8807 9.90128 50.1813 9.56984 50.5696 9.3331C50.9602 9.09399 51.4219 8.97443 51.9545 8.97443C52.3973 8.97443 52.7891 9.05611 53.13 9.21946C53.4732 9.38045 53.7467 9.6089 53.9503 9.90483C54.1539 10.1984 54.2699 10.5417 54.2983 10.9347H53.0696C53.0199 10.6719 52.9015 10.4529 52.7145 10.2777C52.5298 10.1001 52.2824 10.0114 51.9723 10.0114C51.7095 10.0114 51.4787 10.0824 51.2798 10.2244C51.081 10.3641 50.9259 10.5653 50.8146 10.8281C50.7057 11.0909 50.6513 11.4058 50.6513 11.7727C50.6513 12.1444 50.7057 12.464 50.8146 12.7315C50.9235 12.9967 51.0762 13.2015 51.2727 13.3459C51.4716 13.4879 51.7048 13.5589 51.9723 13.5589C52.1617 13.5589 52.331 13.5234 52.4801 13.4524C52.6316 13.379 52.7583 13.2737 52.8601 13.1364C52.9619 12.9991 53.0317 12.8321 53.0696 12.6357H54.2983C54.2675 13.0215 54.1539 13.3636 53.9574 13.6619C53.7609 13.9579 53.4934 14.1899 53.1548 14.358C52.8163 14.5237 52.4186 14.6065 51.9616 14.6065ZM58.8304 12.206V9.04545H60.1159V14.5H58.8695V13.5305H58.8127C58.6896 13.8359 58.4872 14.0857 58.2054 14.2798C57.9261 14.474 57.5816 14.571 57.1721 14.571C56.8146 14.571 56.4985 14.4917 56.2239 14.3331C55.9516 14.1721 55.7386 13.9389 55.5847 13.6335C55.4308 13.3258 55.3539 12.9541 55.3539 12.5185V9.04545H56.6394V12.3196C56.6394 12.6652 56.7341 12.9399 56.9235 13.1435C57.1129 13.3471 57.3614 13.4489 57.6692 13.4489C57.8586 13.4489 58.0421 13.4027 58.2196 13.3104C58.3972 13.218 58.5428 13.0807 58.6564 12.8984C58.7724 12.7138 58.8304 12.483 58.8304 12.206ZM61.4379 14.5V9.04545H62.6843V9.95455H62.7411C62.8406 9.63968 63.011 9.39702 63.2525 9.22656C63.4963 9.05374 63.7745 8.96733 64.087 8.96733C64.158 8.96733 64.2373 8.97088 64.3249 8.97798C64.4149 8.98272 64.4895 8.991 64.5487 9.00284V10.1854C64.4942 10.1664 64.4078 10.1499 64.2894 10.1357C64.1734 10.1191 64.061 10.1108 63.9521 10.1108C63.7177 10.1108 63.507 10.1617 63.32 10.2635C63.1353 10.3629 62.9897 10.5014 62.8832 10.679C62.7766 10.8565 62.7234 11.0613 62.7234 11.2933V14.5H61.4379ZM67.5929 14.6065C67.046 14.6065 66.5737 14.4929 66.176 14.2656C65.7806 14.036 65.4764 13.7116 65.2633 13.2926C65.0502 12.8712 64.9437 12.3752 64.9437 11.8047C64.9437 11.2436 65.0502 10.7512 65.2633 10.3274C65.4788 9.90128 65.7794 9.56984 66.1653 9.3331C66.5512 9.09399 67.0046 8.97443 67.5254 8.97443C67.8616 8.97443 68.1788 9.02888 68.4771 9.13778C68.7778 9.24432 69.0429 9.41004 69.2725 9.63494C69.5046 9.85985 69.6868 10.1463 69.8194 10.4943C69.952 10.84 70.0183 11.2519 70.0183 11.7301V12.1243H65.5474V11.2578H68.786C68.7837 11.0116 68.7304 10.7926 68.6262 10.6009C68.5221 10.4067 68.3765 10.254 68.1895 10.1428C68.0048 10.0315 67.7894 9.97585 67.5431 9.97585C67.2804 9.97585 67.0495 10.0398 66.8507 10.1676C66.6518 10.2931 66.4967 10.4588 66.3855 10.6648C66.2766 10.8684 66.2209 11.0921 66.2186 11.3359V12.0923C66.2186 12.4096 66.2766 12.6818 66.3926 12.9091C66.5086 13.134 66.6708 13.3068 66.8791 13.4276C67.0874 13.5459 67.3313 13.6051 67.6106 13.6051C67.7976 13.6051 67.9669 13.5791 68.1184 13.527C68.2699 13.4725 68.4013 13.3932 68.5126 13.2891C68.6239 13.1849 68.7079 13.0559 68.7647 12.902L69.965 13.0369C69.8893 13.3542 69.7449 13.6312 69.5318 13.8679C69.3211 14.1023 69.0512 14.2846 68.7221 14.4148C68.3931 14.5426 68.0166 14.6065 67.5929 14.6065ZM73.13 14.5959C72.7015 14.5959 72.3179 14.4858 71.9794 14.2656C71.6409 14.0455 71.3733 13.7259 71.1768 13.3068C70.9804 12.8878 70.8821 12.3788 70.8821 11.7798C70.8821 11.1738 70.9815 10.6624 71.1804 10.2457C71.3816 9.8267 71.6527 9.51065 71.9936 9.29759C72.3345 9.08215 72.7145 8.97443 73.1335 8.97443C73.4531 8.97443 73.7159 9.02888 73.9219 9.13778C74.1278 9.24432 74.2912 9.37334 74.4119 9.52486C74.5327 9.67401 74.6262 9.81487 74.6925 9.94744H74.7457V7.22727H76.0348V14.5H74.7706V13.6406H74.6925C74.6262 13.7732 74.5303 13.9141 74.4048 14.0632C74.2794 14.21 74.1136 14.3355 73.9077 14.4396C73.7017 14.5438 73.4425 14.5959 73.13 14.5959ZM73.4886 13.5412C73.7609 13.5412 73.9929 13.4678 74.1847 13.321C74.3764 13.1719 74.522 12.9647 74.6214 12.6996C74.7209 12.4344 74.7706 12.1255 74.7706 11.7727C74.7706 11.42 74.7209 11.1134 74.6214 10.853C74.5244 10.5926 74.38 10.3902 74.1882 10.2457C73.9988 10.1013 73.7656 10.0291 73.4886 10.0291C73.2022 10.0291 72.9631 10.1037 72.7713 10.2528C72.5795 10.402 72.4351 10.608 72.3381 10.8707C72.241 11.1335 72.1925 11.4342 72.1925 11.7727C72.1925 12.1136 72.241 12.4179 72.3381 12.6854C72.4375 12.9505 72.5831 13.16 72.7749 13.3139C72.969 13.4654 73.2069 13.5412 73.4886 13.5412ZM37.2926 24.5V17.9545H39.5043C40.0178 17.9545 40.4375 18.0472 40.7635 18.2326C41.0916 18.4158 41.3345 18.6641 41.4922 18.9773C41.6499 19.2905 41.7287 19.6399 41.7287 20.0256C41.7287 20.4112 41.6499 20.7617 41.4922 21.0771C41.3366 21.3924 41.0959 21.6438 40.7699 21.8313C40.4439 22.0167 40.0263 22.1094 39.517 22.1094H37.9318V21.4062H39.4915C39.843 21.4062 40.1254 21.3455 40.3384 21.2241C40.5515 21.1026 40.706 20.9386 40.8018 20.7319C40.8999 20.5231 40.9489 20.2876 40.9489 20.0256C40.9489 19.7635 40.8999 19.5291 40.8018 19.3224C40.706 19.1158 40.5504 18.9538 40.3352 18.8366C40.12 18.7173 39.8345 18.6577 39.4787 18.6577H38.0852V24.5H37.2926ZM44.3478 24.6151C44.0368 24.6151 43.7544 24.5565 43.5009 24.4393C43.2473 24.32 43.046 24.1484 42.8968 23.9247C42.7477 23.6989 42.6731 23.4261 42.6731 23.1065C42.6731 22.8253 42.7285 22.5973 42.8393 22.4226C42.9501 22.2457 43.0982 22.1072 43.2836 22.0071C43.4689 21.907 43.6735 21.8324 43.8972 21.7834C44.123 21.7322 44.35 21.6918 44.5779 21.6619C44.8762 21.6236 45.1181 21.5948 45.3034 21.5756C45.4909 21.5543 45.6273 21.5192 45.7125 21.4702C45.7999 21.4212 45.8436 21.3359 45.8436 21.2145V21.1889C45.8436 20.8736 45.7573 20.6286 45.5847 20.4538C45.4142 20.2791 45.1554 20.1918 44.8081 20.1918C44.448 20.1918 44.1657 20.2706 43.9611 20.4283C43.7566 20.5859 43.6127 20.7543 43.5297 20.9332L42.8137 20.6776C42.9416 20.3793 43.112 20.147 43.3251 19.9808C43.5403 19.8125 43.7747 19.6953 44.0282 19.6293C44.2839 19.5611 44.5353 19.527 44.7825 19.527C44.9402 19.527 45.1213 19.5462 45.3258 19.5845C45.5325 19.6207 45.7317 19.6964 45.9235 19.8114C46.1174 19.9265 46.2782 20.1001 46.4061 20.3324C46.5339 20.5646 46.5978 20.8757 46.5978 21.2656V24.5H45.8436V23.8352H45.8052C45.7541 23.9418 45.6689 24.0558 45.5495 24.1772C45.4302 24.2987 45.2715 24.402 45.0733 24.4872C44.8752 24.5724 44.6333 24.6151 44.3478 24.6151ZM44.4629 23.9375C44.7612 23.9375 45.0126 23.8789 45.2172 23.7617C45.4238 23.6445 45.5794 23.4933 45.6838 23.3079C45.7903 23.1225 45.8436 22.9276 45.8436 22.723V22.0327C45.8116 22.071 45.7413 22.1062 45.6326 22.1381C45.5261 22.168 45.4025 22.1946 45.2619 22.218C45.1234 22.2393 44.9881 22.2585 44.856 22.2756C44.726 22.2905 44.6206 22.3033 44.5396 22.3139C44.3436 22.3395 44.1603 22.381 43.9899 22.4386C43.8216 22.494 43.6852 22.5781 43.5808 22.6911C43.4785 22.8018 43.4274 22.9531 43.4274 23.1449C43.4274 23.407 43.5243 23.6051 43.7182 23.7393C43.9142 23.8714 44.1625 23.9375 44.4629 23.9375ZM48.2845 26.3409C48.1567 26.3409 48.0427 26.3303 47.9426 26.3089C47.8424 26.2898 47.7732 26.2706 47.7348 26.2514L47.9266 25.5866C48.1098 25.6335 48.2718 25.6506 48.4124 25.6378C48.553 25.625 48.6776 25.5621 48.7863 25.4492C48.8971 25.3384 48.9983 25.1584 49.0899 24.9091L49.2306 24.5256L47.4152 19.5909H48.2334L49.5885 23.5028H49.6396L50.9948 19.5909H51.8129L49.7291 25.2159C49.6354 25.4695 49.5193 25.6793 49.3808 25.8455C49.2423 26.0138 49.0814 26.1385 48.8982 26.2195C48.7171 26.3004 48.5125 26.3409 48.2845 26.3409ZM52.8085 24.5V19.5909H53.5372V20.358H53.6011C53.7034 20.0959 53.8685 19.8924 54.0965 19.7475C54.3245 19.6005 54.5983 19.527 54.9179 19.527C55.2417 19.527 55.5113 19.6005 55.7265 19.7475C55.9438 19.8924 56.1132 20.0959 56.2346 20.358H56.2858C56.4115 20.1044 56.6001 19.9031 56.8515 19.7539C57.1029 19.6026 57.4044 19.527 57.7559 19.527C58.1949 19.527 58.5539 19.6644 58.833 19.9393C59.1121 20.212 59.2517 20.6371 59.2517 21.2145V24.5H58.4974V21.2145C58.4974 20.8523 58.3983 20.5934 58.2002 20.4379C58.002 20.2823 57.7687 20.2045 57.5003 20.2045C57.1551 20.2045 56.8877 20.3089 56.6981 20.5178C56.5084 20.7244 56.4136 20.9865 56.4136 21.304V24.5H55.6466V21.1378C55.6466 20.8587 55.556 20.6339 55.3749 20.4634C55.1938 20.2908 54.9605 20.2045 54.675 20.2045C54.479 20.2045 54.2957 20.2567 54.1253 20.3612C53.9569 20.4656 53.8206 20.6104 53.7162 20.7958C53.6139 20.979 53.5628 21.1911 53.5628 21.4318V24.5H52.8085ZM62.689 24.6023C62.216 24.6023 61.808 24.4979 61.4649 24.2891C61.124 24.0781 60.8609 23.7841 60.6755 23.407C60.4923 23.0277 60.4007 22.5866 60.4007 22.0838C60.4007 21.581 60.4923 21.1378 60.6755 20.7543C60.8609 20.3686 61.1187 20.0682 61.449 19.853C61.7813 19.6357 62.1691 19.527 62.6123 19.527C62.868 19.527 63.1205 19.5696 63.3698 19.6548C63.6191 19.7401 63.846 19.8786 64.0505 20.0703C64.2551 20.2599 64.4181 20.5114 64.5395 20.8246C64.661 21.1378 64.7217 21.5234 64.7217 21.9815V22.3011H60.9376V21.6491H63.9546C63.9546 21.3722 63.8992 21.125 63.7884 20.9077C63.6798 20.6903 63.5242 20.5188 63.3218 20.3931C63.1215 20.2674 62.885 20.2045 62.6123 20.2045C62.3119 20.2045 62.0519 20.2791 61.8325 20.4283C61.6151 20.5753 61.4479 20.767 61.3307 21.0036C61.2135 21.2401 61.1549 21.4936 61.1549 21.7642V22.1989C61.1549 22.5696 61.2188 22.8839 61.3467 23.1417C61.4767 23.3974 61.6567 23.5923 61.8868 23.7266C62.1169 23.8587 62.3843 23.9247 62.689 23.9247C62.8872 23.9247 63.0661 23.897 63.2259 23.8416C63.3879 23.7841 63.5274 23.6989 63.6446 23.5859C63.7618 23.4709 63.8524 23.3281 63.9163 23.1577L64.645 23.3622C64.5683 23.6094 64.4394 23.8267 64.2583 24.0142C64.0771 24.1996 63.8534 24.3445 63.5871 24.4489C63.3208 24.5511 63.0214 24.6023 62.689 24.6023ZM66.6233 21.5469V24.5H65.8691V19.5909H66.5977V20.358H66.6617C66.7767 20.1087 66.9514 19.9084 67.1858 19.7571C67.4202 19.6037 67.7227 19.527 68.0935 19.527C68.4259 19.527 68.7167 19.5952 68.966 19.7315C69.2153 19.8658 69.4092 20.0703 69.5477 20.3452C69.6862 20.6179 69.7554 20.9631 69.7554 21.3807V24.5H69.0012V21.4318C69.0012 21.0462 68.901 20.7457 68.7007 20.5305C68.5004 20.3132 68.2256 20.2045 67.8762 20.2045C67.6354 20.2045 67.4202 20.2567 67.2306 20.3612C67.0431 20.4656 66.895 20.6179 66.7863 20.8182C66.6776 21.0185 66.6233 21.2614 66.6233 21.5469ZM73.2686 19.5909V20.2301H70.7246V19.5909H73.2686ZM71.4661 18.4148H72.2203V23.0938C72.2203 23.3068 72.2512 23.4666 72.313 23.5732C72.377 23.6776 72.4579 23.7479 72.5559 23.7841C72.6561 23.8182 72.7615 23.8352 72.8723 23.8352C72.9554 23.8352 73.0236 23.831 73.0769 23.8224C73.1301 23.8118 73.1728 23.8033 73.2047 23.7969L73.3581 24.4744C73.307 24.4936 73.2356 24.5128 73.144 24.532C73.0524 24.5533 72.9363 24.5639 72.7956 24.5639C72.5826 24.5639 72.3738 24.5181 72.1692 24.4265C71.9668 24.3349 71.7985 24.1953 71.6642 24.0078C71.5321 23.8203 71.4661 23.5838 71.4661 23.2983V18.4148ZM77.7926 20.6903L77.1151 20.8821C77.0724 20.7692 77.0096 20.6594 76.9265 20.5529C76.8455 20.4442 76.7347 20.3548 76.5941 20.2844C76.4535 20.2141 76.2734 20.179 76.054 20.179C75.7536 20.179 75.5032 20.2482 75.3029 20.3867C75.1048 20.5231 75.0057 20.6967 75.0057 20.9077C75.0057 21.0952 75.0739 21.2433 75.2102 21.3519C75.3466 21.4606 75.5597 21.5511 75.8494 21.6236L76.5781 21.8026C77.017 21.9091 77.3441 22.0721 77.5593 22.2915C77.7745 22.5089 77.8821 22.7891 77.8821 23.1321C77.8821 23.4134 77.8011 23.6648 77.6392 23.8864C77.4794 24.108 77.2557 24.2827 76.968 24.4105C76.6804 24.5384 76.3459 24.6023 75.9645 24.6023C75.4638 24.6023 75.0494 24.4936 74.7212 24.2763C74.3931 24.0589 74.1854 23.7415 74.098 23.3239L74.8139 23.1449C74.8821 23.4091 75.011 23.6072 75.2006 23.7393C75.3924 23.8714 75.6428 23.9375 75.9517 23.9375C76.3033 23.9375 76.5824 23.8629 76.7891 23.7138C76.9979 23.5625 77.1023 23.3814 77.1023 23.1705C77.1023 23 77.0426 22.8572 76.9233 22.7422C76.804 22.625 76.6207 22.5376 76.3736 22.4801L75.5554 22.2884C75.1058 22.1818 74.7756 22.0167 74.5646 21.793C74.3558 21.5671 74.2514 21.2848 74.2514 20.946C74.2514 20.669 74.3292 20.424 74.4847 20.2109C74.6424 19.9979 74.8565 19.8306 75.1271 19.7092C75.3999 19.5877 75.7088 19.527 76.054 19.527C76.5398 19.527 76.9212 19.6335 77.1982 19.8466C77.4773 20.0597 77.6754 20.3409 77.7926 20.6903Z" fill="#405065"/>
</svg>
