<svg width="78" height="32" viewBox="0 0 78 32" fill="none" xmlns="http://www.w3.org/2000/svg">
<path fill-rule="evenodd" clip-rule="evenodd" d="M18.6282 4.32142L23.6848 6.91783C25.2554 7.72229 26.1663 9.40782 25.9747 11.1615L25.4384 16.1159C25.4384 17.6354 24.6255 19.0401 23.3102 19.8019L18.6282 22.5048C17.313 23.2667 15.687 23.2667 14.3718 22.5048L9.68976 19.8019C8.37454 19.0401 7.56157 17.6354 7.56157 16.1159L7.02526 11.1615C6.83372 9.40782 7.74459 7.72229 9.31095 6.91783L14.3718 4.32142C15.687 3.55953 17.313 3.55953 18.6282 4.32142ZM15.9722 17.2609L21.0799 12.1532C21.497 11.7361 21.497 11.0636 21.0799 10.6464C20.6628 10.2293 19.9902 10.2293 19.5731 10.6464L15.2188 15.0007L13.4184 13.2003C13.0012 12.7831 12.3287 12.7831 11.9116 13.2003C11.4945 13.6174 11.4945 14.2899 11.9116 14.707L14.4654 17.2609C14.674 17.4694 14.9464 17.5716 15.2188 17.5716C15.4912 17.5716 15.7636 17.4694 15.9722 17.2609ZM16.4999 24.7825C17.5427 24.7825 18.5727 24.5058 19.4793 23.9823L21.9225 22.5734L22.4588 27.4087C22.4588 28.0514 21.765 28.4558 21.2032 28.1408L16.4999 25.4848L11.7965 28.1408C11.2347 28.4558 10.5409 28.0514 10.5409 27.4087L11.0772 22.5734L13.5204 23.9823C14.4227 24.5058 15.457 24.7825 16.4999 24.7825Z" fill="#929CA8"/>
<path d="M38.1903 7.22727L40.0831 12.9517H40.1577L42.0469 7.22727H43.4957L40.9318 14.5H39.3054L36.745 7.22727H38.1903ZM46.2257 14.6065C45.6788 14.6065 45.2065 14.4929 44.8088 14.2656C44.4134 14.036 44.1092 13.7116 43.8961 13.2926C43.6831 12.8712 43.5765 12.3752 43.5765 11.8047C43.5765 11.2436 43.6831 10.7512 43.8961 10.3274C44.1116 9.90128 44.4122 9.56984 44.7981 9.3331C45.184 9.09399 45.6374 8.97443 46.1582 8.97443C46.4944 8.97443 46.8116 9.02888 47.1099 9.13778C47.4106 9.24432 47.6757 9.41004 47.9054 9.63494C48.1374 9.85985 48.3197 10.1463 48.4522 10.4943C48.5848 10.84 48.6511 11.2519 48.6511 11.7301V12.1243H44.1802V11.2578H47.4189C47.4165 11.0116 47.3632 10.7926 47.2591 10.6009C47.1549 10.4067 47.0093 10.254 46.8223 10.1428C46.6376 10.0315 46.4222 9.97585 46.176 9.97585C45.9132 9.97585 45.6824 10.0398 45.4835 10.1676C45.2846 10.2931 45.1296 10.4588 45.0183 10.6648C44.9094 10.8684 44.8538 11.0921 44.8514 11.3359V12.0923C44.8514 12.4096 44.9094 12.6818 45.0254 12.9091C45.1414 13.134 45.3036 13.3068 45.5119 13.4276C45.7202 13.5459 45.9641 13.6051 46.2434 13.6051C46.4305 13.6051 46.5997 13.5791 46.7512 13.527C46.9028 13.4725 47.0342 13.3932 47.1454 13.2891C47.2567 13.1849 47.3407 13.0559 47.3975 12.902L48.5978 13.0369C48.5221 13.3542 48.3777 13.6312 48.1646 13.8679C47.9539 14.1023 47.684 14.2846 47.3549 14.4148C47.0259 14.5426 46.6494 14.6065 46.2257 14.6065ZM49.7386 14.5V9.04545H50.9851V9.95455H51.0419C51.1413 9.63968 51.3118 9.39702 51.5533 9.22656C51.7971 9.05374 52.0753 8.96733 52.3878 8.96733C52.4588 8.96733 52.5381 8.97088 52.6257 8.97798C52.7157 8.98272 52.7902 8.991 52.8494 9.00284V10.1854C52.795 10.1664 52.7086 10.1499 52.5902 10.1357C52.4742 10.1191 52.3617 10.1108 52.2528 10.1108C52.0185 10.1108 51.8078 10.1617 51.6207 10.2635C51.4361 10.3629 51.2905 10.5014 51.1839 10.679C51.0774 10.8565 51.0241 11.0613 51.0241 11.2933V14.5H49.7386ZM53.7035 14.5V9.04545H54.989V14.5H53.7035ZM54.3498 8.27131C54.1462 8.27131 53.971 8.20384 53.8242 8.06889C53.6774 7.93158 53.604 7.76705 53.604 7.57528C53.604 7.38116 53.6774 7.21662 53.8242 7.08168C53.971 6.94437 54.1462 6.87571 54.3498 6.87571C54.5558 6.87571 54.7309 6.94437 54.8754 7.08168C55.0221 7.21662 55.0955 7.38116 55.0955 7.57528C55.0955 7.76705 55.0221 7.93158 54.8754 8.06889C54.7309 8.20384 54.5558 8.27131 54.3498 8.27131ZM59.0737 9.04545V10.0398H55.8493V9.04545H59.0737ZM56.6554 14.5V8.53054C56.6554 8.16359 56.7311 7.85819 56.8826 7.61435C57.0365 7.3705 57.2425 7.18821 57.5005 7.06747C57.7586 6.94673 58.045 6.88636 58.3599 6.88636C58.5824 6.88636 58.7801 6.90412 58.9529 6.93963C59.1258 6.97514 59.2536 7.0071 59.3365 7.03551L59.0808 8.02983C59.0263 8.01326 58.9577 7.99669 58.8748 7.98011C58.792 7.96117 58.6996 7.9517 58.5978 7.9517C58.3587 7.9517 58.1895 8.00971 58.09 8.12571C57.993 8.23935 57.9444 8.4027 57.9444 8.61577V14.5H56.6554ZM60.0804 14.5V9.04545H61.3659V14.5H60.0804ZM60.7267 8.27131C60.5231 8.27131 60.348 8.20384 60.2012 8.06889C60.0544 7.93158 59.981 7.76705 59.981 7.57528C59.981 7.38116 60.0544 7.21662 60.2012 7.08168C60.348 6.94437 60.5231 6.87571 60.7267 6.87571C60.9327 6.87571 61.1079 6.94437 61.2523 7.08168C61.3991 7.21662 61.4725 7.38116 61.4725 7.57528C61.4725 7.76705 61.3991 7.93158 61.2523 8.06889C61.1079 8.20384 60.9327 8.27131 60.7267 8.27131ZM65.1026 14.6065C64.5558 14.6065 64.0835 14.4929 63.6857 14.2656C63.2904 14.036 62.9862 13.7116 62.7731 13.2926C62.56 12.8712 62.4535 12.3752 62.4535 11.8047C62.4535 11.2436 62.56 10.7512 62.7731 10.3274C62.9885 9.90128 63.2892 9.56984 63.6751 9.3331C64.061 9.09399 64.5143 8.97443 65.0352 8.97443C65.3713 8.97443 65.6886 9.02888 65.9869 9.13778C66.2875 9.24432 66.5527 9.41004 66.7823 9.63494C67.0143 9.85985 67.1966 10.1463 67.3292 10.4943C67.4618 10.84 67.5281 11.2519 67.5281 11.7301V12.1243H63.0572V11.2578H66.2958C66.2934 11.0116 66.2402 10.7926 66.136 10.6009C66.0318 10.4067 65.8862 10.254 65.6992 10.1428C65.5146 10.0315 65.2991 9.97585 65.0529 9.97585C64.7901 9.97585 64.5593 10.0398 64.3604 10.1676C64.1616 10.2931 64.0065 10.4588 63.8952 10.6648C63.7863 10.8684 63.7307 11.0921 63.7283 11.3359V12.0923C63.7283 12.4096 63.7863 12.6818 63.9023 12.9091C64.0183 13.134 64.1805 13.3068 64.3888 13.4276C64.5972 13.5459 64.841 13.6051 65.1204 13.6051C65.3074 13.6051 65.4767 13.5791 65.6282 13.527C65.7797 13.4725 65.9111 13.3932 66.0224 13.2891C66.1336 13.1849 66.2177 13.0559 66.2745 12.902L67.4748 13.0369C67.399 13.3542 67.2546 13.6312 67.0415 13.8679C66.8308 14.1023 66.561 14.2846 66.2319 14.4148C65.9028 14.5426 65.5264 14.6065 65.1026 14.6065ZM70.6397 14.5959C70.2112 14.5959 69.8277 14.4858 69.4892 14.2656C69.1506 14.0455 68.8831 13.7259 68.6866 13.3068C68.4901 12.8878 68.3919 12.3788 68.3919 11.7798C68.3919 11.1738 68.4913 10.6624 68.6902 10.2457C68.8914 9.8267 69.1625 9.51065 69.5034 9.29759C69.8443 9.08215 70.2243 8.97443 70.6433 8.97443C70.9629 8.97443 71.2257 9.02888 71.4316 9.13778C71.6376 9.24432 71.801 9.37334 71.9217 9.52486C72.0424 9.67401 72.1359 9.81487 72.2022 9.94744H72.2555V7.22727H73.5446V14.5H72.2804V13.6406H72.2022C72.1359 13.7732 72.0401 13.9141 71.9146 14.0632C71.7891 14.21 71.6234 14.3355 71.4174 14.4396C71.2115 14.5438 70.9522 14.5959 70.6397 14.5959ZM70.9984 13.5412C71.2707 13.5412 71.5027 13.4678 71.6944 13.321C71.8862 13.1719 72.0318 12.9647 72.1312 12.6996C72.2306 12.4344 72.2804 12.1255 72.2804 11.7727C72.2804 11.42 72.2306 11.1134 72.1312 10.853C72.0342 10.5926 71.8897 10.3902 71.698 10.2457C71.5086 10.1013 71.2754 10.0291 70.9984 10.0291C70.7119 10.0291 70.4728 10.1037 70.2811 10.2528C70.0893 10.402 69.9449 10.608 69.8478 10.8707C69.7508 11.1335 69.7022 11.4342 69.7022 11.7727C69.7022 12.1136 69.7508 12.4179 69.8478 12.6854C69.9473 12.9505 70.0929 13.16 70.2846 13.3139C70.4788 13.4654 70.7167 13.5412 70.9984 13.5412ZM37.2926 17.9545H38.2386L40.4631 23.3878H40.5398L42.7642 17.9545H43.7102V24.5H42.9688V19.527H42.9048L40.8594 24.5H40.1435L38.098 19.527H38.0341V24.5H37.2926V17.9545ZM47.2554 24.6023C46.7824 24.6023 46.3744 24.4979 46.0313 24.2891C45.6904 24.0781 45.4273 23.7841 45.2419 23.407C45.0587 23.0277 44.9671 22.5866 44.9671 22.0838C44.9671 21.581 45.0587 21.1378 45.2419 20.7543C45.4273 20.3686 45.6851 20.0682 46.0154 19.853C46.3477 19.6357 46.7355 19.527 47.1787 19.527C47.4344 19.527 47.6869 19.5696 47.9362 19.6548C48.1855 19.7401 48.4124 19.8786 48.6169 20.0703C48.8215 20.2599 48.9845 20.5114 49.1059 20.8246C49.2274 21.1378 49.2881 21.5234 49.2881 21.9815V22.3011H45.504V21.6491H48.521C48.521 21.3722 48.4656 21.125 48.3548 20.9077C48.2462 20.6903 48.0906 20.5188 47.8882 20.3931C47.6879 20.2674 47.4514 20.2045 47.1787 20.2045C46.8783 20.2045 46.6183 20.2791 46.3989 20.4283C46.1816 20.5753 46.0143 20.767 45.8971 21.0036C45.7799 21.2401 45.7213 21.4936 45.7213 21.7642V22.1989C45.7213 22.5696 45.7852 22.8839 45.9131 23.1417C46.0431 23.3974 46.2231 23.5923 46.4532 23.7266C46.6833 23.8587 46.9507 23.9247 47.2554 23.9247C47.4536 23.9247 47.6325 23.897 47.7923 23.8416C47.9543 23.7841 48.0938 23.6989 48.211 23.5859C48.3282 23.4709 48.4188 23.3281 48.4827 23.1577L49.2114 23.3622C49.1347 23.6094 49.0058 23.8267 48.8247 24.0142C48.6436 24.1996 48.4198 24.3445 48.1535 24.4489C47.8872 24.5511 47.5878 24.6023 47.2554 24.6023ZM50.4355 24.5V19.5909H51.1642V20.3324H51.2153C51.3048 20.0895 51.4667 19.8924 51.7011 19.7411C51.9355 19.5898 52.1997 19.5142 52.4937 19.5142C52.5491 19.5142 52.6183 19.5153 52.7014 19.5174C52.7845 19.5195 52.8474 19.5227 52.89 19.527V20.294C52.8644 20.2876 52.8058 20.2781 52.7142 20.2653C52.6247 20.2504 52.5299 20.2429 52.4298 20.2429C52.1911 20.2429 51.9781 20.293 51.7906 20.3931C51.6052 20.4911 51.4582 20.6275 51.3495 20.8022C51.243 20.9748 51.1897 21.1719 51.1897 21.3935V24.5H50.4355ZM55.629 24.6023C55.1688 24.6023 54.7725 24.4936 54.4401 24.2763C54.1077 24.0589 53.852 23.7596 53.673 23.3782C53.4941 22.9968 53.4046 22.5611 53.4046 22.071C53.4046 21.5724 53.4962 21.1325 53.6794 20.7511C53.8648 20.3675 54.1226 20.0682 54.4529 19.853C54.7852 19.6357 55.173 19.527 55.6162 19.527C55.9614 19.527 56.2725 19.5909 56.5494 19.7188C56.8264 19.8466 57.0534 20.0256 57.2302 20.2557C57.407 20.4858 57.5168 20.7543 57.5594 21.0611H56.8051C56.7476 20.8374 56.6198 20.6392 56.4216 20.4666C56.2256 20.2919 55.9614 20.2045 55.629 20.2045C55.335 20.2045 55.0771 20.2812 54.8556 20.4347C54.6361 20.5859 54.4646 20.8001 54.341 21.0771C54.2195 21.3519 54.1588 21.6747 54.1588 22.0455C54.1588 22.4247 54.2185 22.755 54.3378 23.0362C54.4593 23.3175 54.6297 23.5359 54.8492 23.6914C55.0708 23.8469 55.3307 23.9247 55.629 23.9247C55.825 23.9247 56.0029 23.8906 56.1627 23.8224C56.3225 23.7543 56.4578 23.6562 56.5686 23.5284C56.6794 23.4006 56.7583 23.2472 56.8051 23.0682H57.5594C57.5168 23.358 57.4113 23.619 57.243 23.8512C57.0768 24.0813 56.8563 24.2646 56.5814 24.4009C56.3087 24.5352 55.9912 24.6023 55.629 24.6023ZM59.4163 21.5469V24.5H58.662V17.9545H59.4163V20.358H59.4802C59.5953 20.1044 59.7678 19.9031 59.998 19.7539C60.2302 19.6026 60.5392 19.527 60.9248 19.527C61.2593 19.527 61.5523 19.5941 61.8037 19.7283C62.0551 19.8604 62.2501 20.0639 62.3886 20.3388C62.5292 20.6115 62.5995 20.9588 62.5995 21.3807V24.5H61.8453V21.4318C61.8453 21.0419 61.7441 20.7404 61.5416 20.5273C61.3414 20.3121 61.0633 20.2045 60.7075 20.2045C60.4603 20.2045 60.2387 20.2567 60.0427 20.3612C59.8488 20.4656 59.6954 20.6179 59.5825 20.8182C59.4717 21.0185 59.4163 21.2614 59.4163 21.5469ZM65.424 24.6151C65.1129 24.6151 64.8306 24.5565 64.5771 24.4393C64.3235 24.32 64.1222 24.1484 63.973 23.9247C63.8239 23.6989 63.7493 23.4261 63.7493 23.1065C63.7493 22.8253 63.8047 22.5973 63.9155 22.4226C64.0263 22.2457 64.1744 22.1072 64.3597 22.0071C64.5451 21.907 64.7496 21.8324 64.9734 21.7834C65.1992 21.7322 65.4261 21.6918 65.6541 21.6619C65.9524 21.6236 66.1942 21.5948 66.3796 21.5756C66.5671 21.5543 66.7035 21.5192 66.7887 21.4702C66.8761 21.4212 66.9197 21.3359 66.9197 21.2145V21.1889C66.9197 20.8736 66.8335 20.6286 66.6609 20.4538C66.4904 20.2791 66.2315 20.1918 65.8842 20.1918C65.5241 20.1918 65.2418 20.2706 65.0373 20.4283C64.8327 20.5859 64.6889 20.7543 64.6058 20.9332L63.8899 20.6776C64.0178 20.3793 64.1882 20.147 64.4013 19.9808C64.6165 19.8125 64.8509 19.6953 65.1044 19.6293C65.3601 19.5611 65.6115 19.527 65.8587 19.527C66.0163 19.527 66.1974 19.5462 66.402 19.5845C66.6087 19.6207 66.8079 19.6964 66.9996 19.8114C67.1935 19.9265 67.3544 20.1001 67.4822 20.3324C67.6101 20.5646 67.674 20.8757 67.674 21.2656V24.5H66.9197V23.8352H66.8814C66.8303 23.9418 66.745 24.0558 66.6257 24.1772C66.5064 24.2987 66.3477 24.402 66.1495 24.4872C65.9513 24.5724 65.7095 24.6151 65.424 24.6151ZM65.5391 23.9375C65.8374 23.9375 66.0888 23.8789 66.2933 23.7617C66.5 23.6445 66.6555 23.4933 66.7599 23.3079C66.8665 23.1225 66.9197 22.9276 66.9197 22.723V22.0327C66.8878 22.071 66.8175 22.1062 66.7088 22.1381C66.6023 22.168 66.4787 22.1946 66.3381 22.218C66.1996 22.2393 66.0643 22.2585 65.9322 22.2756C65.8022 22.2905 65.6967 22.3033 65.6158 22.3139C65.4197 22.3395 65.2365 22.381 65.0661 22.4386C64.8977 22.494 64.7614 22.5781 64.657 22.6911C64.5547 22.8018 64.5036 22.9531 64.5036 23.1449C64.5036 23.407 64.6005 23.6051 64.7944 23.7393C64.9904 23.8714 65.2386 23.9375 65.5391 23.9375ZM69.805 21.5469V24.5H69.0507V19.5909H69.7794V20.358H69.8433C69.9584 20.1087 70.1331 19.9084 70.3675 19.7571C70.6018 19.6037 70.9044 19.527 71.2751 19.527C71.6075 19.527 71.8983 19.5952 72.1476 19.7315C72.3969 19.8658 72.5908 20.0703 72.7293 20.3452C72.8678 20.6179 72.9371 20.9631 72.9371 21.3807V24.5H72.1828V21.4318C72.1828 21.0462 72.0827 20.7457 71.8824 20.5305C71.6821 20.3132 71.4072 20.2045 71.0578 20.2045C70.817 20.2045 70.6018 20.2567 70.4122 20.3612C70.2247 20.4656 70.0766 20.6179 69.968 20.8182C69.8593 21.0185 69.805 21.2614 69.805 21.5469ZM76.4503 19.5909V20.2301H73.9062V19.5909H76.4503ZM74.6477 18.4148H75.402V23.0938C75.402 23.3068 75.4329 23.4666 75.4947 23.5732C75.5586 23.6776 75.6396 23.7479 75.7376 23.7841C75.8377 23.8182 75.9432 23.8352 76.054 23.8352C76.1371 23.8352 76.2053 23.831 76.2585 23.8224C76.3118 23.8118 76.3544 23.8033 76.3864 23.7969L76.5398 24.4744C76.4886 24.4936 76.4173 24.5128 76.3256 24.532C76.234 24.5533 76.1179 24.5639 75.9773 24.5639C75.7642 24.5639 75.5554 24.5181 75.3509 24.4265C75.1484 24.3349 74.9801 24.1953 74.8459 24.0078C74.7138 23.8203 74.6477 23.5838 74.6477 23.2983V18.4148Z" fill="#405065"/>
</svg>
